G75*
%MOIN*%
%OFA0B0*%
%FSLAX24Y24*%
%IPPOS*%
%LPD*%
%AMOC8*
5,1,8,0,0,1.08239X$1,22.5*
%
%ADD10C,0.0080*%
%ADD11C,0.0079*%
%ADD12C,0.0160*%
%ADD13C,0.0040*%
%ADD14C,0.0050*%
%ADD15R,0.0160X0.0280*%
%ADD16C,0.0010*%
D10*
X002626Y003232D02*
X003182Y002676D01*
X003150Y002898D02*
X003152Y002916D01*
X003158Y002934D01*
X003167Y002950D01*
X003179Y002963D01*
X003194Y002974D01*
X003211Y002982D01*
X003229Y002986D01*
X003247Y002986D01*
X003265Y002982D01*
X003282Y002974D01*
X003297Y002963D01*
X003309Y002950D01*
X003318Y002934D01*
X003324Y002916D01*
X003326Y002898D01*
X003324Y002880D01*
X003318Y002862D01*
X003309Y002846D01*
X003297Y002833D01*
X003282Y002822D01*
X003265Y002814D01*
X003247Y002810D01*
X003229Y002810D01*
X003211Y002814D01*
X003194Y002822D01*
X003179Y002833D01*
X003167Y002846D01*
X003158Y002862D01*
X003152Y002880D01*
X003150Y002898D01*
X004045Y002703D02*
X004101Y002759D01*
X004491Y003149D02*
X004547Y003205D01*
X004574Y004068D02*
X004018Y004624D01*
X003155Y004597D02*
X003099Y004541D01*
X002709Y004151D02*
X002653Y004095D01*
X001754Y007966D02*
X001676Y007966D01*
X001124Y007966D02*
X001046Y007966D01*
X000416Y008556D02*
X000416Y009344D01*
X001046Y009934D02*
X001124Y009934D01*
X001676Y009934D02*
X001754Y009934D01*
X002384Y009344D02*
X002384Y008556D01*
X000525Y008674D02*
X000527Y008692D01*
X000533Y008710D01*
X000542Y008726D01*
X000554Y008739D01*
X000569Y008750D01*
X000586Y008758D01*
X000604Y008762D01*
X000622Y008762D01*
X000640Y008758D01*
X000657Y008750D01*
X000672Y008739D01*
X000684Y008726D01*
X000693Y008710D01*
X000699Y008692D01*
X000701Y008674D01*
X000699Y008656D01*
X000693Y008638D01*
X000684Y008622D01*
X000672Y008609D01*
X000657Y008598D01*
X000640Y008590D01*
X000622Y008586D01*
X000604Y008586D01*
X000586Y008590D01*
X000569Y008598D01*
X000554Y008609D01*
X000542Y008622D01*
X000533Y008638D01*
X000527Y008656D01*
X000525Y008674D01*
X003155Y013303D02*
X003099Y013359D01*
X002709Y013749D02*
X002653Y013805D01*
X002760Y014612D02*
X002762Y014630D01*
X002768Y014648D01*
X002777Y014664D01*
X002789Y014677D01*
X002804Y014688D01*
X002821Y014696D01*
X002839Y014700D01*
X002857Y014700D01*
X002875Y014696D01*
X002892Y014688D01*
X002907Y014677D01*
X002919Y014664D01*
X002928Y014648D01*
X002934Y014630D01*
X002936Y014612D01*
X002934Y014594D01*
X002928Y014576D01*
X002919Y014560D01*
X002907Y014547D01*
X002892Y014536D01*
X002875Y014528D01*
X002857Y014524D01*
X002839Y014524D01*
X002821Y014528D01*
X002804Y014536D01*
X002789Y014547D01*
X002777Y014560D01*
X002768Y014576D01*
X002762Y014594D01*
X002760Y014612D01*
X002626Y014668D02*
X003182Y015224D01*
X004045Y015197D02*
X004101Y015141D01*
X004491Y014751D02*
X004547Y014695D01*
X004574Y013832D02*
X004018Y013276D01*
X007916Y016096D02*
X007916Y016174D01*
X007916Y016726D02*
X007916Y016804D01*
X008506Y017434D02*
X009294Y017434D01*
X009884Y016804D02*
X009884Y016726D01*
X009884Y016174D02*
X009884Y016096D01*
X009294Y015466D02*
X008506Y015466D01*
X008536Y017237D02*
X008538Y017255D01*
X008544Y017273D01*
X008553Y017289D01*
X008565Y017302D01*
X008580Y017313D01*
X008597Y017321D01*
X008615Y017325D01*
X008633Y017325D01*
X008651Y017321D01*
X008668Y017313D01*
X008683Y017302D01*
X008695Y017289D01*
X008704Y017273D01*
X008710Y017255D01*
X008712Y017237D01*
X008710Y017219D01*
X008704Y017201D01*
X008695Y017185D01*
X008683Y017172D01*
X008668Y017161D01*
X008651Y017153D01*
X008633Y017149D01*
X008615Y017149D01*
X008597Y017153D01*
X008580Y017161D01*
X008565Y017172D01*
X008553Y017185D01*
X008544Y017201D01*
X008538Y017219D01*
X008536Y017237D01*
X013253Y014695D02*
X013309Y014751D01*
X013699Y015141D02*
X013755Y015197D01*
X014474Y015002D02*
X014476Y015020D01*
X014482Y015038D01*
X014491Y015054D01*
X014503Y015067D01*
X014518Y015078D01*
X014535Y015086D01*
X014553Y015090D01*
X014571Y015090D01*
X014589Y015086D01*
X014606Y015078D01*
X014621Y015067D01*
X014633Y015054D01*
X014642Y015038D01*
X014648Y015020D01*
X014650Y015002D01*
X014648Y014984D01*
X014642Y014966D01*
X014633Y014950D01*
X014621Y014937D01*
X014606Y014926D01*
X014589Y014918D01*
X014571Y014914D01*
X014553Y014914D01*
X014535Y014918D01*
X014518Y014926D01*
X014503Y014937D01*
X014491Y014950D01*
X014482Y014966D01*
X014476Y014984D01*
X014474Y015002D01*
X014618Y015224D02*
X015174Y014668D01*
X015147Y013805D02*
X015091Y013749D01*
X014701Y013359D02*
X014645Y013303D01*
X013782Y013276D02*
X013226Y013832D01*
X016046Y009934D02*
X016124Y009934D01*
X016676Y009934D02*
X016754Y009934D01*
X017384Y009344D02*
X017384Y008556D01*
X016754Y007966D02*
X016676Y007966D01*
X016124Y007966D02*
X016046Y007966D01*
X015416Y008556D02*
X015416Y009344D01*
X017099Y009226D02*
X017101Y009244D01*
X017107Y009262D01*
X017116Y009278D01*
X017128Y009291D01*
X017143Y009302D01*
X017160Y009310D01*
X017178Y009314D01*
X017196Y009314D01*
X017214Y009310D01*
X017231Y009302D01*
X017246Y009291D01*
X017258Y009278D01*
X017267Y009262D01*
X017273Y009244D01*
X017275Y009226D01*
X017273Y009208D01*
X017267Y009190D01*
X017258Y009174D01*
X017246Y009161D01*
X017231Y009150D01*
X017214Y009142D01*
X017196Y009138D01*
X017178Y009138D01*
X017160Y009142D01*
X017143Y009150D01*
X017128Y009161D01*
X017116Y009174D01*
X017107Y009190D01*
X017101Y009208D01*
X017099Y009226D01*
X014645Y004597D02*
X014701Y004541D01*
X015091Y004151D02*
X015147Y004095D01*
X014864Y003288D02*
X014866Y003306D01*
X014872Y003324D01*
X014881Y003340D01*
X014893Y003353D01*
X014908Y003364D01*
X014925Y003372D01*
X014943Y003376D01*
X014961Y003376D01*
X014979Y003372D01*
X014996Y003364D01*
X015011Y003353D01*
X015023Y003340D01*
X015032Y003324D01*
X015038Y003306D01*
X015040Y003288D01*
X015038Y003270D01*
X015032Y003252D01*
X015023Y003236D01*
X015011Y003223D01*
X014996Y003212D01*
X014979Y003204D01*
X014961Y003200D01*
X014943Y003200D01*
X014925Y003204D01*
X014908Y003212D01*
X014893Y003223D01*
X014881Y003236D01*
X014872Y003252D01*
X014866Y003270D01*
X014864Y003288D01*
X015174Y003232D02*
X014618Y002676D01*
X013755Y002703D02*
X013699Y002759D01*
X013309Y003149D02*
X013253Y003205D01*
X013226Y004068D02*
X013782Y004624D01*
X009884Y001804D02*
X009884Y001726D01*
X009884Y001174D02*
X009884Y001096D01*
X009088Y000663D02*
X009090Y000681D01*
X009096Y000699D01*
X009105Y000715D01*
X009117Y000728D01*
X009132Y000739D01*
X009149Y000747D01*
X009167Y000751D01*
X009185Y000751D01*
X009203Y000747D01*
X009220Y000739D01*
X009235Y000728D01*
X009247Y000715D01*
X009256Y000699D01*
X009262Y000681D01*
X009264Y000663D01*
X009262Y000645D01*
X009256Y000627D01*
X009247Y000611D01*
X009235Y000598D01*
X009220Y000587D01*
X009203Y000579D01*
X009185Y000575D01*
X009167Y000575D01*
X009149Y000579D01*
X009132Y000587D01*
X009117Y000598D01*
X009105Y000611D01*
X009096Y000627D01*
X009090Y000645D01*
X009088Y000663D01*
X009294Y000466D02*
X008506Y000466D01*
X007916Y001096D02*
X007916Y001174D01*
X007916Y001726D02*
X007916Y001804D01*
X008506Y002434D02*
X009294Y002434D01*
D11*
X009806Y002434D02*
X009884Y002434D01*
X009884Y002395D01*
X008191Y002434D02*
X008073Y002434D01*
X008034Y002395D01*
X007916Y000505D02*
X007916Y000466D01*
X007994Y000466D01*
X009806Y000466D02*
X009884Y000466D01*
X009884Y000505D01*
X012919Y003706D02*
X012919Y003761D01*
X013003Y003845D01*
X014144Y004986D02*
X014200Y005042D01*
X014228Y005014D01*
X015564Y003678D02*
X015592Y003650D01*
X015536Y003594D01*
X014256Y002314D02*
X014200Y002258D01*
X014172Y002286D01*
X017345Y007966D02*
X017384Y007966D01*
X017384Y008044D01*
X017384Y009856D02*
X017384Y009934D01*
X017345Y009934D01*
X015455Y009934D02*
X015416Y009934D01*
X015416Y009856D01*
X015416Y008241D02*
X015416Y008123D01*
X015455Y008084D01*
X014144Y012969D02*
X014089Y012969D01*
X014005Y013053D01*
X012864Y014194D02*
X012808Y014250D01*
X012836Y014278D01*
X014172Y015614D02*
X014200Y015642D01*
X014256Y015586D01*
X015536Y014306D02*
X015592Y014250D01*
X015564Y014222D01*
X009884Y017395D02*
X009884Y017434D01*
X009806Y017434D01*
X007994Y017434D02*
X007916Y017434D01*
X007916Y017395D01*
X007916Y015505D02*
X007916Y015466D01*
X007994Y015466D01*
X009609Y015466D02*
X009727Y015466D01*
X009766Y015505D01*
X004881Y014194D02*
X004881Y014139D01*
X004797Y014055D01*
X003656Y012914D02*
X003600Y012858D01*
X003572Y012886D01*
X002236Y014222D02*
X002208Y014250D01*
X002264Y014306D01*
X003544Y015586D02*
X003600Y015642D01*
X003628Y015614D01*
X000455Y009934D02*
X000416Y009934D01*
X000416Y009856D01*
X000416Y008044D02*
X000416Y007966D01*
X000455Y007966D01*
X002345Y007966D02*
X002384Y007966D01*
X002384Y008044D01*
X002384Y009659D02*
X002384Y009777D01*
X002345Y009816D01*
X003656Y004931D02*
X003711Y004931D01*
X003795Y004847D01*
X004936Y003706D02*
X004992Y003650D01*
X004964Y003622D01*
X003628Y002286D02*
X003600Y002258D01*
X003544Y002314D01*
X002264Y003594D02*
X002208Y003650D01*
X002236Y003678D01*
D12*
X002257Y004500D02*
X002243Y004520D01*
X007328Y001102D02*
X007352Y001098D01*
X013330Y002293D02*
X013350Y002307D01*
X016748Y007378D02*
X016752Y007402D01*
X015557Y013380D02*
X015543Y013400D01*
X010472Y016798D02*
X010448Y016802D01*
X004470Y015607D02*
X004450Y015593D01*
X001052Y010522D02*
X001048Y010498D01*
D13*
X001555Y013128D02*
X001688Y013328D01*
X001521Y013294D02*
X001721Y013161D01*
X012928Y016146D02*
X013078Y016046D01*
X013161Y016062D01*
X013294Y016262D01*
X013278Y016345D01*
X013128Y016445D01*
X012928Y016146D01*
X013234Y015941D02*
X013334Y015875D01*
X013284Y015908D02*
X013484Y016208D01*
X013434Y016241D02*
X013534Y016174D01*
D14*
X004235Y002192D02*
X004422Y002067D01*
X004443Y001963D01*
X004276Y001713D01*
X004172Y001692D01*
X003985Y001817D01*
X004235Y002192D01*
X004576Y001874D02*
X004409Y001624D01*
X004430Y001520D01*
X004555Y001437D01*
X004659Y001457D01*
X004826Y001707D01*
X004805Y001811D01*
X004680Y001895D01*
X004576Y001874D01*
X010742Y000750D02*
X011036Y000809D01*
D15*
G36*
X007219Y016695D02*
X007188Y016851D01*
X007461Y016905D01*
X007492Y016749D01*
X007219Y016695D01*
G37*
D16*
X006233Y016002D02*
X005987Y016002D01*
X005991Y015993D02*
X006237Y015993D01*
X006241Y015985D02*
X005994Y015985D01*
X005998Y015976D02*
X006245Y015976D01*
X006248Y015968D02*
X006002Y015968D01*
X006006Y015959D02*
X006252Y015959D01*
X006256Y015951D02*
X006010Y015951D01*
X006014Y015942D02*
X006260Y015942D01*
X006264Y015934D02*
X006018Y015934D01*
X006022Y015925D02*
X006268Y015925D01*
X006272Y015917D02*
X006025Y015917D01*
X006029Y015908D02*
X006275Y015908D01*
X006279Y015900D02*
X006033Y015900D01*
X006037Y015891D02*
X006283Y015891D01*
X006287Y015883D02*
X006041Y015883D01*
X006045Y015874D02*
X006291Y015874D01*
X006295Y015866D02*
X006049Y015866D01*
X006053Y015857D02*
X006299Y015857D01*
X006303Y015849D02*
X006056Y015849D01*
X006060Y015840D02*
X006306Y015840D01*
X006310Y015832D02*
X006064Y015832D01*
X006068Y015823D02*
X006314Y015823D01*
X006318Y015815D02*
X006072Y015815D01*
X006076Y015806D02*
X006322Y015806D01*
X006326Y015798D02*
X006079Y015798D01*
X006080Y015798D02*
X005962Y016057D01*
X005902Y016073D01*
X005874Y016061D01*
X005825Y016168D01*
X005796Y016179D01*
X005681Y016127D01*
X005667Y016091D01*
X005705Y016008D01*
X005685Y015999D01*
X005694Y015979D01*
X005714Y015988D01*
X005872Y016060D01*
X005866Y016074D01*
X005684Y015992D01*
X005691Y015975D01*
X005664Y015919D01*
X005781Y015662D01*
X005837Y015659D01*
X005949Y015414D01*
X005700Y015300D01*
X005315Y016144D01*
X006021Y016466D01*
X006407Y015620D01*
X006158Y015506D01*
X006044Y015756D01*
X006080Y015798D01*
X006072Y015789D02*
X006330Y015789D01*
X006334Y015781D02*
X006065Y015781D01*
X006058Y015772D02*
X006337Y015772D01*
X006341Y015764D02*
X006051Y015764D01*
X006044Y015755D02*
X006345Y015755D01*
X006349Y015747D02*
X006048Y015747D01*
X006052Y015738D02*
X006353Y015738D01*
X006357Y015730D02*
X006056Y015730D01*
X006060Y015721D02*
X006361Y015721D01*
X006365Y015713D02*
X006063Y015713D01*
X006067Y015704D02*
X006368Y015704D01*
X006372Y015696D02*
X006071Y015696D01*
X006075Y015687D02*
X006376Y015687D01*
X006380Y015679D02*
X006079Y015679D01*
X006083Y015670D02*
X006384Y015670D01*
X006388Y015662D02*
X006087Y015662D01*
X006091Y015653D02*
X006392Y015653D01*
X006396Y015645D02*
X006094Y015645D01*
X006098Y015636D02*
X006399Y015636D01*
X006403Y015628D02*
X006102Y015628D01*
X006106Y015619D02*
X006406Y015619D01*
X006387Y015611D02*
X006110Y015611D01*
X006114Y015602D02*
X006368Y015602D01*
X006350Y015594D02*
X006118Y015594D01*
X006122Y015585D02*
X006331Y015585D01*
X006313Y015577D02*
X006125Y015577D01*
X006129Y015568D02*
X006294Y015568D01*
X006275Y015560D02*
X006133Y015560D01*
X006137Y015551D02*
X006257Y015551D01*
X006238Y015543D02*
X006141Y015543D01*
X006145Y015534D02*
X006219Y015534D01*
X006201Y015526D02*
X006149Y015526D01*
X006153Y015517D02*
X006182Y015517D01*
X006163Y015509D02*
X006156Y015509D01*
X005949Y015415D02*
X005647Y015415D01*
X005651Y015407D02*
X005935Y015407D01*
X005945Y015424D02*
X005644Y015424D01*
X005640Y015432D02*
X005941Y015432D01*
X005937Y015441D02*
X005636Y015441D01*
X005632Y015449D02*
X005933Y015449D01*
X005929Y015458D02*
X005628Y015458D01*
X005624Y015466D02*
X005925Y015466D01*
X005921Y015475D02*
X005620Y015475D01*
X005616Y015483D02*
X005918Y015483D01*
X005914Y015492D02*
X005613Y015492D01*
X005609Y015500D02*
X005910Y015500D01*
X005906Y015509D02*
X005605Y015509D01*
X005601Y015517D02*
X005902Y015517D01*
X005898Y015526D02*
X005597Y015526D01*
X005593Y015534D02*
X005894Y015534D01*
X005890Y015543D02*
X005589Y015543D01*
X005585Y015551D02*
X005887Y015551D01*
X005883Y015560D02*
X005582Y015560D01*
X005578Y015568D02*
X005879Y015568D01*
X005875Y015577D02*
X005574Y015577D01*
X005570Y015585D02*
X005871Y015585D01*
X005867Y015594D02*
X005566Y015594D01*
X005562Y015602D02*
X005863Y015602D01*
X005859Y015611D02*
X005558Y015611D01*
X005554Y015619D02*
X005856Y015619D01*
X005852Y015628D02*
X005551Y015628D01*
X005547Y015636D02*
X005848Y015636D01*
X005844Y015645D02*
X005543Y015645D01*
X005539Y015653D02*
X005840Y015653D01*
X005787Y015662D02*
X005535Y015662D01*
X005531Y015670D02*
X005777Y015670D01*
X005773Y015679D02*
X005527Y015679D01*
X005523Y015687D02*
X005770Y015687D01*
X005766Y015696D02*
X005520Y015696D01*
X005516Y015704D02*
X005762Y015704D01*
X005758Y015713D02*
X005512Y015713D01*
X005508Y015721D02*
X005754Y015721D01*
X005750Y015730D02*
X005504Y015730D01*
X005500Y015738D02*
X005746Y015738D01*
X005742Y015747D02*
X005496Y015747D01*
X005492Y015755D02*
X005739Y015755D01*
X005735Y015764D02*
X005489Y015764D01*
X005485Y015772D02*
X005731Y015772D01*
X005727Y015781D02*
X005481Y015781D01*
X005477Y015789D02*
X005723Y015789D01*
X005719Y015798D02*
X005473Y015798D01*
X005469Y015806D02*
X005715Y015806D01*
X005711Y015815D02*
X005465Y015815D01*
X005461Y015823D02*
X005708Y015823D01*
X005704Y015832D02*
X005458Y015832D01*
X005454Y015840D02*
X005700Y015840D01*
X005696Y015849D02*
X005450Y015849D01*
X005446Y015857D02*
X005692Y015857D01*
X005688Y015866D02*
X005442Y015866D01*
X005438Y015874D02*
X005684Y015874D01*
X005680Y015883D02*
X005434Y015883D01*
X005430Y015891D02*
X005677Y015891D01*
X005673Y015900D02*
X005427Y015900D01*
X005423Y015908D02*
X005669Y015908D01*
X005665Y015917D02*
X005419Y015917D01*
X005415Y015925D02*
X005667Y015925D01*
X005671Y015934D02*
X005411Y015934D01*
X005407Y015942D02*
X005675Y015942D01*
X005680Y015951D02*
X005403Y015951D01*
X005399Y015959D02*
X005684Y015959D01*
X005688Y015968D02*
X005396Y015968D01*
X005392Y015976D02*
X005691Y015976D01*
X005691Y015985D02*
X005708Y015985D01*
X005707Y016002D02*
X005745Y016002D01*
X005744Y016019D02*
X005783Y016019D01*
X005781Y016036D02*
X005820Y016036D01*
X005819Y016053D02*
X005857Y016053D01*
X005872Y016061D02*
X005837Y016061D01*
X005838Y016044D02*
X005800Y016044D01*
X005801Y016027D02*
X005763Y016027D01*
X005764Y016010D02*
X005725Y016010D01*
X005727Y015993D02*
X005688Y015993D01*
X005687Y015993D02*
X005384Y015993D01*
X005388Y015985D02*
X005687Y015985D01*
X005692Y016002D02*
X005380Y016002D01*
X005376Y016010D02*
X005704Y016010D01*
X005700Y016019D02*
X005372Y016019D01*
X005368Y016027D02*
X005696Y016027D01*
X005692Y016036D02*
X005365Y016036D01*
X005361Y016044D02*
X005688Y016044D01*
X005684Y016053D02*
X005357Y016053D01*
X005353Y016061D02*
X005680Y016061D01*
X005677Y016070D02*
X005349Y016070D01*
X005345Y016078D02*
X005673Y016078D01*
X005669Y016087D02*
X005341Y016087D01*
X005337Y016095D02*
X005668Y016095D01*
X005672Y016104D02*
X005334Y016104D01*
X005330Y016112D02*
X005676Y016112D01*
X005679Y016121D02*
X005326Y016121D01*
X005322Y016129D02*
X005687Y016129D01*
X005706Y016138D02*
X005318Y016138D01*
X005320Y016146D02*
X005725Y016146D01*
X005743Y016155D02*
X005338Y016155D01*
X005357Y016163D02*
X005762Y016163D01*
X005781Y016172D02*
X005376Y016172D01*
X005394Y016180D02*
X006152Y016180D01*
X006155Y016172D02*
X005815Y016172D01*
X005827Y016163D02*
X006159Y016163D01*
X006163Y016155D02*
X005831Y016155D01*
X005835Y016146D02*
X006167Y016146D01*
X006171Y016138D02*
X005839Y016138D01*
X005843Y016129D02*
X006175Y016129D01*
X006179Y016121D02*
X005847Y016121D01*
X005851Y016112D02*
X006183Y016112D01*
X006186Y016104D02*
X005855Y016104D01*
X005858Y016095D02*
X006190Y016095D01*
X006194Y016087D02*
X005862Y016087D01*
X005866Y016078D02*
X006198Y016078D01*
X006202Y016070D02*
X005913Y016070D01*
X005894Y016070D02*
X005870Y016070D01*
X005868Y016070D02*
X005856Y016070D01*
X005874Y016061D02*
X005876Y016061D01*
X005944Y016061D02*
X006206Y016061D01*
X006210Y016053D02*
X005963Y016053D01*
X005967Y016044D02*
X006214Y016044D01*
X006217Y016036D02*
X005971Y016036D01*
X005975Y016027D02*
X006221Y016027D01*
X006225Y016019D02*
X005979Y016019D01*
X005983Y016010D02*
X006229Y016010D01*
X006148Y016189D02*
X005413Y016189D01*
X005432Y016197D02*
X006144Y016197D01*
X006140Y016206D02*
X005450Y016206D01*
X005469Y016214D02*
X006136Y016214D01*
X006132Y016223D02*
X005487Y016223D01*
X005506Y016231D02*
X006128Y016231D01*
X006124Y016240D02*
X005525Y016240D01*
X005543Y016248D02*
X006121Y016248D01*
X006117Y016257D02*
X005562Y016257D01*
X005581Y016265D02*
X006113Y016265D01*
X006109Y016274D02*
X005599Y016274D01*
X005618Y016282D02*
X006105Y016282D01*
X006101Y016291D02*
X005637Y016291D01*
X005655Y016299D02*
X006097Y016299D01*
X006093Y016308D02*
X005674Y016308D01*
X005693Y016316D02*
X006090Y016316D01*
X006086Y016325D02*
X005711Y016325D01*
X005730Y016333D02*
X006082Y016333D01*
X006078Y016342D02*
X005749Y016342D01*
X005767Y016350D02*
X006074Y016350D01*
X006070Y016359D02*
X005786Y016359D01*
X005805Y016367D02*
X006066Y016367D01*
X006062Y016376D02*
X005823Y016376D01*
X005842Y016384D02*
X006059Y016384D01*
X006055Y016393D02*
X005861Y016393D01*
X005879Y016401D02*
X006051Y016401D01*
X006047Y016410D02*
X005898Y016410D01*
X005916Y016418D02*
X006043Y016418D01*
X006039Y016427D02*
X005935Y016427D01*
X005954Y016435D02*
X006035Y016435D01*
X006031Y016444D02*
X005972Y016444D01*
X005991Y016452D02*
X006028Y016452D01*
X006024Y016461D02*
X006010Y016461D01*
X005916Y015398D02*
X005655Y015398D01*
X005659Y015390D02*
X005897Y015390D01*
X005879Y015381D02*
X005663Y015381D01*
X005667Y015373D02*
X005860Y015373D01*
X005841Y015364D02*
X005671Y015364D01*
X005675Y015356D02*
X005823Y015356D01*
X005804Y015347D02*
X005678Y015347D01*
X005682Y015339D02*
X005785Y015339D01*
X005767Y015330D02*
X005686Y015330D01*
X005690Y015322D02*
X005748Y015322D01*
X005729Y015313D02*
X005694Y015313D01*
X005698Y015305D02*
X005711Y015305D01*
M02*
