G75*
%MOIN*%
%OFA0B0*%
%FSLAX24Y24*%
%IPPOS*%
%LPD*%
%AMOC8*
5,1,8,0,0,1.08239X$1,22.5*
%
%ADD10C,0.0040*%
%ADD11C,0.0050*%
%ADD12C,0.0030*%
%ADD13C,0.0010*%
D10*
X002698Y004661D02*
X002629Y004759D01*
X002644Y004843D01*
X002693Y004878D01*
X002777Y004863D01*
X002846Y004764D01*
X002930Y004750D01*
X002979Y004784D01*
X002993Y004868D01*
X002925Y004966D01*
X002841Y004981D01*
X002792Y004946D01*
X002777Y004863D01*
X002846Y004764D02*
X002831Y004681D01*
X002782Y004646D01*
X002698Y004661D01*
X002669Y005017D02*
X002531Y005214D01*
X002409Y005284D02*
X002423Y005368D01*
X002320Y005515D01*
X002247Y005620D02*
X002261Y005704D01*
X002158Y005852D01*
X002256Y005920D02*
X001961Y005714D01*
X002065Y005566D01*
X002148Y005551D01*
X002247Y005620D01*
X002227Y005753D02*
X002394Y005724D01*
X002468Y005619D02*
X002571Y005471D01*
X002556Y005388D01*
X002507Y005353D01*
X002423Y005368D01*
X002409Y005284D02*
X002359Y005250D01*
X002276Y005264D01*
X002172Y005412D01*
X002468Y005619D01*
X002134Y005991D02*
X001937Y005853D01*
X001853Y005868D01*
X001784Y005966D01*
X001799Y006050D01*
X001996Y006188D01*
X002080Y006173D01*
X002148Y006075D01*
X002134Y005991D01*
X006761Y002560D02*
X006761Y002320D01*
X006761Y002500D02*
X007001Y002500D01*
X007001Y002560D02*
X006881Y002680D01*
X006761Y002560D01*
X007001Y002560D02*
X007001Y002320D01*
X007129Y002380D02*
X007189Y002320D01*
X007310Y002320D01*
X007370Y002380D01*
X007370Y002620D01*
X007310Y002680D01*
X007189Y002680D01*
X007129Y002620D01*
X007863Y002380D02*
X007863Y002320D01*
X007923Y002320D01*
X007923Y002380D01*
X007863Y002380D01*
X007863Y002320D02*
X007983Y002200D01*
X008112Y002320D02*
X008292Y002320D01*
X008352Y002380D01*
X008292Y002440D01*
X008112Y002440D01*
X008112Y002500D02*
X008112Y002320D01*
X008112Y002500D02*
X008172Y002560D01*
X008292Y002560D01*
X008480Y002500D02*
X008480Y002320D01*
X008720Y002320D02*
X008720Y002560D01*
X008540Y002560D01*
X008480Y002500D01*
X008848Y002500D02*
X008848Y002440D01*
X009088Y002440D01*
X009088Y002380D02*
X009088Y002500D01*
X009028Y002560D01*
X008908Y002560D01*
X008848Y002500D01*
X008908Y002320D02*
X009028Y002320D01*
X009088Y002380D01*
X009217Y002320D02*
X009397Y002320D01*
X009457Y002380D01*
X009457Y002500D01*
X009397Y002560D01*
X009217Y002560D01*
X009217Y002680D02*
X009217Y002320D01*
X009585Y002320D02*
X009585Y002500D01*
X009645Y002560D01*
X009765Y002560D01*
X009765Y002440D02*
X009585Y002440D01*
X009585Y002320D02*
X009765Y002320D01*
X009825Y002380D01*
X009765Y002440D01*
X009953Y002380D02*
X010013Y002440D01*
X010133Y002440D01*
X010193Y002500D01*
X010133Y002560D01*
X009953Y002560D01*
X009953Y002380D02*
X010013Y002320D01*
X010193Y002320D01*
X010321Y002320D02*
X010502Y002320D01*
X010562Y002380D01*
X010502Y002440D01*
X010321Y002440D01*
X010321Y002500D02*
X010321Y002320D01*
X010321Y002500D02*
X010382Y002560D01*
X010502Y002560D01*
X010690Y002500D02*
X010750Y002440D01*
X010930Y002440D01*
X010930Y002320D02*
X010930Y002680D01*
X010750Y002680D01*
X010690Y002620D01*
X010690Y002500D01*
X016320Y006194D02*
X016380Y006254D01*
X016320Y006314D01*
X016380Y006374D01*
X016560Y006374D01*
X016560Y006502D02*
X016380Y006502D01*
X016320Y006562D01*
X016380Y006622D01*
X016320Y006682D01*
X016380Y006742D01*
X016560Y006742D01*
X016560Y006871D02*
X016380Y006871D01*
X016320Y006931D01*
X016380Y006991D01*
X016320Y007051D01*
X016380Y007111D01*
X016560Y007111D01*
X016380Y007239D02*
X016380Y007299D01*
X016320Y007299D01*
X016320Y007239D01*
X016380Y007239D01*
X016380Y007423D02*
X016320Y007483D01*
X016320Y007663D01*
X016500Y007663D01*
X016560Y007603D01*
X016560Y007483D01*
X016440Y007483D02*
X016440Y007663D01*
X016380Y007791D02*
X016320Y007851D01*
X016320Y008032D01*
X016320Y008160D02*
X016560Y008160D01*
X016560Y008280D02*
X016560Y008340D01*
X016560Y008280D02*
X016440Y008160D01*
X016560Y008032D02*
X016560Y007851D01*
X016500Y007791D01*
X016380Y007791D01*
X016440Y007483D02*
X016380Y007423D01*
X016380Y008467D02*
X016320Y008527D01*
X016320Y008647D01*
X016380Y008707D01*
X016500Y008707D01*
X016560Y008647D01*
X016560Y008527D01*
X016500Y008467D01*
X016380Y008467D01*
X016320Y008835D02*
X016320Y009015D01*
X016380Y009075D01*
X016500Y009075D01*
X016560Y009015D01*
X016560Y008835D01*
X016680Y008835D02*
X016320Y008835D01*
X016380Y009203D02*
X016320Y009263D01*
X016320Y009383D01*
X016380Y009443D01*
X016500Y009443D01*
X016560Y009383D01*
X016560Y009263D01*
X016500Y009203D01*
X016380Y009203D01*
X016560Y009571D02*
X016560Y009692D01*
X016620Y009632D02*
X016380Y009632D01*
X016320Y009692D01*
X016320Y009817D02*
X016320Y009937D01*
X016320Y009877D02*
X016560Y009877D01*
X016560Y009817D01*
X016680Y009877D02*
X016740Y009877D01*
X016500Y010063D02*
X016560Y010123D01*
X016560Y010303D01*
X016380Y010431D02*
X016380Y010491D01*
X016320Y010491D01*
X016320Y010431D01*
X016380Y010431D01*
X016320Y010303D02*
X016320Y010123D01*
X016380Y010063D01*
X016500Y010063D01*
X016500Y010615D02*
X016380Y010615D01*
X016320Y010675D01*
X016320Y010855D01*
X016380Y010983D02*
X016320Y011043D01*
X016320Y011164D01*
X016380Y011224D01*
X016500Y011224D01*
X016560Y011164D01*
X016560Y011043D01*
X016500Y010983D01*
X016380Y010983D01*
X016560Y010855D02*
X016560Y010675D01*
X016500Y010615D01*
X016560Y011352D02*
X016320Y011352D01*
X016320Y011472D02*
X016500Y011472D01*
X016560Y011532D01*
X016500Y011592D01*
X016320Y011592D01*
X016500Y011472D02*
X016560Y011412D01*
X016560Y011352D01*
X013344Y015828D02*
X013195Y015928D01*
X013178Y016011D01*
X013311Y016211D01*
X013394Y016227D01*
X013544Y016127D01*
X013344Y015828D01*
X013038Y016032D02*
X012938Y016099D01*
X012988Y016065D02*
X013188Y016365D01*
X013238Y016332D02*
X013138Y016398D01*
X016320Y006194D02*
X016380Y006134D01*
X016560Y006134D01*
X001726Y013158D02*
X001526Y013291D01*
X001692Y013324D02*
X001559Y013125D01*
D11*
X004011Y001882D02*
X004031Y001778D01*
X004156Y001695D01*
X004260Y001716D01*
X004427Y001965D01*
X004406Y002070D01*
X004281Y002153D01*
X004177Y002132D01*
X004011Y001882D01*
X004394Y001627D02*
X004414Y001523D01*
X004602Y001398D01*
X004852Y001772D01*
X004664Y001897D01*
X004560Y001877D01*
X004394Y001627D01*
X010732Y000722D02*
X011026Y000780D01*
D12*
X009435Y000495D02*
X009345Y000315D01*
X009255Y000495D01*
X009159Y000495D02*
X009069Y000585D01*
X009069Y000315D01*
X009159Y000315D02*
X008979Y000315D01*
X008883Y000315D02*
X008883Y000360D01*
X008837Y000360D01*
X008837Y000315D01*
X008883Y000315D01*
X008744Y000315D02*
X008564Y000315D01*
X008654Y000315D02*
X008654Y000585D01*
X008744Y000495D01*
D13*
X010800Y015869D02*
X010980Y016780D01*
X010219Y016930D01*
X010038Y016018D01*
X010307Y015965D01*
X010360Y016234D01*
X010316Y016267D01*
X010371Y016545D01*
X010426Y016575D01*
X010455Y016570D01*
X010478Y016685D01*
X010504Y016703D01*
X010627Y016678D01*
X010650Y016647D01*
X010632Y016557D01*
X010654Y016553D01*
X010649Y016531D01*
X010628Y016535D01*
X010457Y016569D01*
X010460Y016585D01*
X010656Y016546D01*
X010934Y016546D01*
X010935Y016554D02*
X010644Y016554D01*
X010652Y016546D02*
X010574Y016546D01*
X010571Y016563D02*
X010488Y016563D01*
X010485Y016580D02*
X010459Y016580D01*
X010457Y016580D02*
X010149Y016580D01*
X010148Y016571D02*
X010418Y016571D01*
X010403Y016563D02*
X010146Y016563D01*
X010144Y016554D02*
X010387Y016554D01*
X010372Y016546D02*
X010143Y016546D01*
X010141Y016537D02*
X010369Y016537D01*
X010368Y016529D02*
X010139Y016529D01*
X010137Y016520D02*
X010366Y016520D01*
X010364Y016512D02*
X010136Y016512D01*
X010134Y016503D02*
X010362Y016503D01*
X010361Y016495D02*
X010132Y016495D01*
X010131Y016486D02*
X010359Y016486D01*
X010357Y016478D02*
X010129Y016478D01*
X010127Y016469D02*
X010356Y016469D01*
X010354Y016461D02*
X010126Y016461D01*
X010124Y016452D02*
X010352Y016452D01*
X010351Y016444D02*
X010122Y016444D01*
X010121Y016435D02*
X010349Y016435D01*
X010347Y016427D02*
X010119Y016427D01*
X010117Y016418D02*
X010346Y016418D01*
X010344Y016410D02*
X010116Y016410D01*
X010114Y016401D02*
X010342Y016401D01*
X010341Y016393D02*
X010112Y016393D01*
X010111Y016384D02*
X010339Y016384D01*
X010337Y016376D02*
X010109Y016376D01*
X010107Y016367D02*
X010336Y016367D01*
X010334Y016359D02*
X010106Y016359D01*
X010104Y016350D02*
X010332Y016350D01*
X010330Y016342D02*
X010102Y016342D01*
X010100Y016333D02*
X010329Y016333D01*
X010327Y016325D02*
X010099Y016325D01*
X010097Y016316D02*
X010325Y016316D01*
X010324Y016308D02*
X010095Y016308D01*
X010094Y016299D02*
X010322Y016299D01*
X010320Y016291D02*
X010092Y016291D01*
X010090Y016282D02*
X010319Y016282D01*
X010317Y016274D02*
X010089Y016274D01*
X010087Y016265D02*
X010317Y016265D01*
X010329Y016257D02*
X010085Y016257D01*
X010084Y016248D02*
X010340Y016248D01*
X010352Y016240D02*
X010082Y016240D01*
X010080Y016231D02*
X010360Y016231D01*
X010358Y016223D02*
X010079Y016223D01*
X010077Y016214D02*
X010356Y016214D01*
X010355Y016206D02*
X010075Y016206D01*
X010074Y016197D02*
X010353Y016197D01*
X010351Y016189D02*
X010072Y016189D01*
X010070Y016180D02*
X010349Y016180D01*
X010348Y016172D02*
X010068Y016172D01*
X010067Y016163D02*
X010346Y016163D01*
X010344Y016155D02*
X010065Y016155D01*
X010063Y016146D02*
X010343Y016146D01*
X010341Y016138D02*
X010062Y016138D01*
X010060Y016129D02*
X010339Y016129D01*
X010338Y016121D02*
X010058Y016121D01*
X010057Y016112D02*
X010336Y016112D01*
X010334Y016104D02*
X010055Y016104D01*
X010053Y016095D02*
X010333Y016095D01*
X010331Y016087D02*
X010052Y016087D01*
X010050Y016078D02*
X010329Y016078D01*
X010328Y016070D02*
X010048Y016070D01*
X010047Y016061D02*
X010326Y016061D01*
X010324Y016053D02*
X010045Y016053D01*
X010043Y016044D02*
X010323Y016044D01*
X010321Y016036D02*
X010042Y016036D01*
X010040Y016027D02*
X010319Y016027D01*
X010317Y016019D02*
X010038Y016019D01*
X010076Y016010D02*
X010316Y016010D01*
X010314Y016002D02*
X010119Y016002D01*
X010162Y015993D02*
X010312Y015993D01*
X010311Y015985D02*
X010205Y015985D01*
X010248Y015976D02*
X010309Y015976D01*
X010307Y015968D02*
X010291Y015968D01*
X010531Y015923D02*
X010800Y015869D01*
X010801Y015874D02*
X010774Y015874D01*
X010802Y015883D02*
X010731Y015883D01*
X010688Y015891D02*
X010804Y015891D01*
X010806Y015900D02*
X010645Y015900D01*
X010602Y015908D02*
X010807Y015908D01*
X010809Y015917D02*
X010559Y015917D01*
X010531Y015923D02*
X010583Y016187D01*
X010637Y016203D01*
X010692Y016480D01*
X010653Y016528D01*
X010656Y016546D01*
X010655Y016537D02*
X010932Y016537D01*
X010930Y016529D02*
X010653Y016529D01*
X010651Y016537D02*
X010617Y016537D01*
X010614Y016554D02*
X010531Y016554D01*
X010528Y016571D02*
X010457Y016571D01*
X010455Y016571D02*
X010445Y016571D01*
X010459Y016588D02*
X010151Y016588D01*
X010153Y016597D02*
X010460Y016597D01*
X010462Y016605D02*
X010154Y016605D01*
X010156Y016614D02*
X010464Y016614D01*
X010466Y016622D02*
X010158Y016622D01*
X010159Y016631D02*
X010467Y016631D01*
X010469Y016639D02*
X010161Y016639D01*
X010163Y016648D02*
X010471Y016648D01*
X010472Y016656D02*
X010164Y016656D01*
X010166Y016665D02*
X010474Y016665D01*
X010476Y016673D02*
X010168Y016673D01*
X010169Y016682D02*
X010477Y016682D01*
X010486Y016690D02*
X010171Y016690D01*
X010173Y016699D02*
X010498Y016699D01*
X010522Y016699D02*
X010964Y016699D01*
X010966Y016707D02*
X010175Y016707D01*
X010176Y016716D02*
X010967Y016716D01*
X010969Y016724D02*
X010178Y016724D01*
X010180Y016733D02*
X010971Y016733D01*
X010972Y016741D02*
X010181Y016741D01*
X010183Y016750D02*
X010974Y016750D01*
X010976Y016758D02*
X010185Y016758D01*
X010186Y016767D02*
X010977Y016767D01*
X010979Y016775D02*
X010188Y016775D01*
X010190Y016784D02*
X010958Y016784D01*
X010915Y016792D02*
X010191Y016792D01*
X010193Y016801D02*
X010872Y016801D01*
X010829Y016809D02*
X010195Y016809D01*
X010196Y016818D02*
X010786Y016818D01*
X010743Y016826D02*
X010198Y016826D01*
X010200Y016835D02*
X010700Y016835D01*
X010657Y016843D02*
X010201Y016843D01*
X010203Y016852D02*
X010614Y016852D01*
X010571Y016860D02*
X010205Y016860D01*
X010206Y016869D02*
X010529Y016869D01*
X010486Y016877D02*
X010208Y016877D01*
X010210Y016886D02*
X010443Y016886D01*
X010400Y016894D02*
X010212Y016894D01*
X010213Y016903D02*
X010357Y016903D01*
X010314Y016911D02*
X010215Y016911D01*
X010217Y016920D02*
X010271Y016920D01*
X010228Y016928D02*
X010218Y016928D01*
X010565Y016690D02*
X010962Y016690D01*
X010961Y016682D02*
X010608Y016682D01*
X010631Y016673D02*
X010959Y016673D01*
X010957Y016665D02*
X010637Y016665D01*
X010643Y016656D02*
X010955Y016656D01*
X010954Y016648D02*
X010649Y016648D01*
X010648Y016639D02*
X010952Y016639D01*
X010950Y016631D02*
X010647Y016631D01*
X010645Y016622D02*
X010949Y016622D01*
X010947Y016614D02*
X010643Y016614D01*
X010642Y016605D02*
X010945Y016605D01*
X010944Y016597D02*
X010640Y016597D01*
X010638Y016588D02*
X010942Y016588D01*
X010940Y016580D02*
X010637Y016580D01*
X010635Y016571D02*
X010939Y016571D01*
X010937Y016563D02*
X010633Y016563D01*
X010659Y016520D02*
X010929Y016520D01*
X010927Y016512D02*
X010666Y016512D01*
X010673Y016503D02*
X010925Y016503D01*
X010923Y016495D02*
X010680Y016495D01*
X010687Y016486D02*
X010922Y016486D01*
X010920Y016478D02*
X010692Y016478D01*
X010690Y016469D02*
X010918Y016469D01*
X010917Y016461D02*
X010688Y016461D01*
X010687Y016452D02*
X010915Y016452D01*
X010913Y016444D02*
X010685Y016444D01*
X010683Y016435D02*
X010912Y016435D01*
X010910Y016427D02*
X010682Y016427D01*
X010680Y016418D02*
X010908Y016418D01*
X010907Y016410D02*
X010678Y016410D01*
X010677Y016401D02*
X010905Y016401D01*
X010903Y016393D02*
X010675Y016393D01*
X010673Y016384D02*
X010902Y016384D01*
X010900Y016376D02*
X010672Y016376D01*
X010670Y016367D02*
X010898Y016367D01*
X010897Y016359D02*
X010668Y016359D01*
X010667Y016350D02*
X010895Y016350D01*
X010893Y016342D02*
X010665Y016342D01*
X010663Y016333D02*
X010892Y016333D01*
X010890Y016325D02*
X010661Y016325D01*
X010660Y016316D02*
X010888Y016316D01*
X010886Y016308D02*
X010658Y016308D01*
X010656Y016299D02*
X010885Y016299D01*
X010883Y016291D02*
X010655Y016291D01*
X010653Y016282D02*
X010881Y016282D01*
X010880Y016274D02*
X010651Y016274D01*
X010650Y016265D02*
X010878Y016265D01*
X010876Y016257D02*
X010648Y016257D01*
X010646Y016248D02*
X010875Y016248D01*
X010873Y016240D02*
X010645Y016240D01*
X010643Y016231D02*
X010871Y016231D01*
X010870Y016223D02*
X010641Y016223D01*
X010640Y016214D02*
X010868Y016214D01*
X010866Y016206D02*
X010638Y016206D01*
X010618Y016197D02*
X010865Y016197D01*
X010863Y016189D02*
X010589Y016189D01*
X010582Y016180D02*
X010861Y016180D01*
X010860Y016172D02*
X010580Y016172D01*
X010579Y016163D02*
X010858Y016163D01*
X010856Y016155D02*
X010577Y016155D01*
X010575Y016146D02*
X010854Y016146D01*
X010853Y016138D02*
X010573Y016138D01*
X010572Y016129D02*
X010851Y016129D01*
X010849Y016121D02*
X010570Y016121D01*
X010568Y016112D02*
X010848Y016112D01*
X010846Y016104D02*
X010567Y016104D01*
X010565Y016095D02*
X010844Y016095D01*
X010843Y016087D02*
X010563Y016087D01*
X010562Y016078D02*
X010841Y016078D01*
X010839Y016070D02*
X010560Y016070D01*
X010558Y016061D02*
X010838Y016061D01*
X010836Y016053D02*
X010557Y016053D01*
X010555Y016044D02*
X010834Y016044D01*
X010833Y016036D02*
X010553Y016036D01*
X010552Y016027D02*
X010831Y016027D01*
X010829Y016019D02*
X010550Y016019D01*
X010548Y016010D02*
X010828Y016010D01*
X010826Y016002D02*
X010547Y016002D01*
X010545Y015993D02*
X010824Y015993D01*
X010823Y015985D02*
X010543Y015985D01*
X010542Y015976D02*
X010821Y015976D01*
X010819Y015968D02*
X010540Y015968D01*
X010538Y015959D02*
X010817Y015959D01*
X010816Y015951D02*
X010536Y015951D01*
X010535Y015942D02*
X010814Y015942D01*
X010812Y015934D02*
X010533Y015934D01*
X010531Y015925D02*
X010811Y015925D01*
M02*
