G75*
%MOIN*%
%OFA0B0*%
%FSLAX24Y24*%
%IPPOS*%
%LPD*%
%AMOC8*
5,1,8,0,0,1.08239X$1,22.5*
%
%ADD10C,0.0720*%
%ADD11C,0.1346*%
%ADD12C,0.0120*%
D10*
X004570Y002440D03*
X010440Y001290D03*
X002380Y013280D03*
X013230Y015460D03*
D11*
X011850Y016250D03*
X001600Y011900D03*
X005900Y001650D03*
X011850Y001650D03*
D12*
X011293Y002215D02*
X012422Y002215D01*
X012462Y002173D02*
X012373Y002264D01*
X012272Y002339D01*
X012159Y002397D01*
X012039Y002435D01*
X011914Y002454D01*
X011788Y002453D01*
X011663Y002431D01*
X011544Y002389D01*
X011434Y002330D01*
X011334Y002256D01*
X011246Y002166D01*
X011174Y002065D01*
X011117Y001954D01*
X011078Y001835D01*
X011058Y001712D01*
X011057Y001587D01*
X011074Y001463D01*
X011111Y001344D01*
X011371Y000586D01*
X012941Y001236D01*
X012589Y001956D01*
X012534Y002070D01*
X012462Y002173D01*
X012516Y002096D02*
X011196Y002096D01*
X011129Y001978D02*
X012579Y001978D01*
X012637Y001859D02*
X011086Y001859D01*
X011063Y001741D02*
X012695Y001741D01*
X012753Y001622D02*
X011057Y001622D01*
X011069Y001504D02*
X012811Y001504D01*
X012869Y001385D02*
X011098Y001385D01*
X011137Y001267D02*
X012927Y001267D01*
X012729Y001148D02*
X011178Y001148D01*
X011219Y001030D02*
X012442Y001030D01*
X012156Y000911D02*
X011259Y000911D01*
X011300Y000793D02*
X011870Y000793D01*
X011584Y000674D02*
X011341Y000674D01*
X011439Y002333D02*
X012280Y002333D01*
X011932Y002452D02*
X011781Y002452D01*
X006704Y001714D02*
X006703Y001588D01*
X006681Y001463D01*
X006639Y001344D01*
X006379Y000586D01*
X004809Y001236D01*
X005161Y001956D01*
X005220Y002066D01*
X005294Y002166D01*
X005384Y002254D01*
X005485Y002326D01*
X005596Y002383D01*
X005715Y002422D01*
X005838Y002442D01*
X005963Y002443D01*
X006087Y002426D01*
X006206Y002389D01*
X006320Y002334D01*
X006423Y002262D01*
X006514Y002173D01*
X006589Y002072D01*
X006647Y001959D01*
X006685Y001839D01*
X006704Y001714D01*
X006700Y001741D02*
X005055Y001741D01*
X005113Y001859D02*
X006679Y001859D01*
X006637Y001978D02*
X005172Y001978D01*
X005242Y002096D02*
X006571Y002096D01*
X006472Y002215D02*
X005344Y002215D01*
X005498Y002333D02*
X006322Y002333D01*
X006703Y001622D02*
X004997Y001622D01*
X004939Y001504D02*
X006688Y001504D01*
X006653Y001385D02*
X004881Y001385D01*
X004823Y001267D02*
X006613Y001267D01*
X006572Y001148D02*
X005021Y001148D01*
X005308Y001030D02*
X006531Y001030D01*
X006491Y000911D02*
X005594Y000911D01*
X005880Y000793D02*
X006450Y000793D01*
X006409Y000674D02*
X006166Y000674D01*
X001909Y011153D02*
X002022Y011211D01*
X002123Y011286D01*
X002212Y011377D01*
X002284Y011480D01*
X002339Y011594D01*
X002376Y011713D01*
X002393Y011837D01*
X002392Y011962D01*
X002372Y012085D01*
X002333Y012204D01*
X002276Y012315D01*
X002204Y012416D01*
X002116Y012506D01*
X002016Y012580D01*
X001906Y012639D01*
X001186Y012991D01*
X000536Y011421D01*
X001294Y011161D01*
X001413Y011119D01*
X001538Y011097D01*
X001664Y011096D01*
X001789Y011115D01*
X001909Y011153D01*
X002035Y011221D02*
X001120Y011221D01*
X000774Y011339D02*
X002175Y011339D01*
X002268Y011458D02*
X000551Y011458D01*
X000600Y011576D02*
X002331Y011576D01*
X002370Y011695D02*
X000649Y011695D01*
X000698Y011813D02*
X002390Y011813D01*
X002392Y011932D02*
X000747Y011932D01*
X000796Y012050D02*
X002378Y012050D01*
X002344Y012169D02*
X000845Y012169D01*
X000894Y012287D02*
X002291Y012287D01*
X002212Y012406D02*
X000943Y012406D01*
X000993Y012524D02*
X002092Y012524D01*
X001899Y012643D02*
X001042Y012643D01*
X001091Y012761D02*
X001657Y012761D01*
X001415Y012880D02*
X001140Y012880D01*
X001511Y011102D02*
X001705Y011102D01*
X011103Y015941D02*
X011161Y015828D01*
X011236Y015727D01*
X011327Y015638D01*
X011430Y015566D01*
X011544Y015511D01*
X011663Y015474D01*
X011787Y015457D01*
X011912Y015458D01*
X012035Y015478D01*
X012154Y015517D01*
X012265Y015574D01*
X012366Y015646D01*
X012456Y015734D01*
X012530Y015834D01*
X012589Y015944D01*
X012941Y016664D01*
X011371Y017314D01*
X011111Y016556D01*
X011069Y016437D01*
X011047Y016312D01*
X011046Y016186D01*
X011065Y016061D01*
X011103Y015941D01*
X011097Y015961D02*
X012597Y015961D01*
X012655Y016079D02*
X011062Y016079D01*
X011046Y016198D02*
X012713Y016198D01*
X012771Y016316D02*
X011048Y016316D01*
X011069Y016435D02*
X012829Y016435D01*
X012887Y016553D02*
X011110Y016553D01*
X011150Y016672D02*
X012923Y016672D01*
X012637Y016790D02*
X011191Y016790D01*
X011232Y016909D02*
X012351Y016909D01*
X012065Y017027D02*
X011272Y017027D01*
X011313Y017146D02*
X011778Y017146D01*
X011492Y017264D02*
X011354Y017264D01*
X011154Y015842D02*
X012535Y015842D01*
X012445Y015724D02*
X011239Y015724D01*
X011374Y015605D02*
X012309Y015605D01*
X012060Y015487D02*
X011624Y015487D01*
M02*
