G75*
%MOIN*%
%OFA0B0*%
%FSLAX24Y24*%
%IPPOS*%
%LPD*%
%AMOC8*
5,1,8,0,0,1.08239X$1,22.5*
%
%ADD10C,0.0040*%
%ADD11C,0.0050*%
%ADD12C,0.0030*%
%ADD13C,0.0010*%
D10*
X002698Y004661D02*
X002629Y004759D01*
X002644Y004843D01*
X002693Y004878D01*
X002777Y004863D01*
X002846Y004764D01*
X002930Y004750D01*
X002979Y004784D01*
X002993Y004868D01*
X002925Y004966D01*
X002841Y004981D01*
X002792Y004946D01*
X002777Y004863D01*
X002846Y004764D02*
X002831Y004681D01*
X002782Y004646D01*
X002698Y004661D01*
X002669Y005017D02*
X002531Y005214D01*
X002409Y005284D02*
X002423Y005368D01*
X002320Y005515D01*
X002247Y005620D02*
X002261Y005704D01*
X002158Y005852D01*
X002256Y005920D02*
X001961Y005714D01*
X002065Y005566D01*
X002148Y005551D01*
X002247Y005620D01*
X002227Y005753D02*
X002394Y005724D01*
X002468Y005619D02*
X002571Y005471D01*
X002556Y005388D01*
X002507Y005353D01*
X002423Y005368D01*
X002409Y005284D02*
X002359Y005250D01*
X002276Y005264D01*
X002172Y005412D01*
X002468Y005619D01*
X002134Y005991D02*
X001937Y005853D01*
X001853Y005868D01*
X001784Y005966D01*
X001799Y006050D01*
X001996Y006188D01*
X002080Y006173D01*
X002148Y006075D01*
X002134Y005991D01*
X006761Y002560D02*
X006761Y002320D01*
X006761Y002500D02*
X007001Y002500D01*
X007001Y002560D02*
X006881Y002680D01*
X006761Y002560D01*
X007001Y002560D02*
X007001Y002320D01*
X007129Y002380D02*
X007189Y002320D01*
X007310Y002320D01*
X007370Y002380D01*
X007370Y002620D01*
X007310Y002680D01*
X007189Y002680D01*
X007129Y002620D01*
X007863Y002380D02*
X007863Y002320D01*
X007923Y002320D01*
X007923Y002380D01*
X007863Y002380D01*
X007863Y002320D02*
X007983Y002200D01*
X008112Y002320D02*
X008292Y002320D01*
X008352Y002380D01*
X008292Y002440D01*
X008112Y002440D01*
X008112Y002500D02*
X008112Y002320D01*
X008112Y002500D02*
X008172Y002560D01*
X008292Y002560D01*
X008480Y002500D02*
X008480Y002320D01*
X008720Y002320D02*
X008720Y002560D01*
X008540Y002560D01*
X008480Y002500D01*
X008848Y002500D02*
X008848Y002440D01*
X009088Y002440D01*
X009088Y002380D02*
X009088Y002500D01*
X009028Y002560D01*
X008908Y002560D01*
X008848Y002500D01*
X008908Y002320D02*
X009028Y002320D01*
X009088Y002380D01*
X009217Y002320D02*
X009397Y002320D01*
X009457Y002380D01*
X009457Y002500D01*
X009397Y002560D01*
X009217Y002560D01*
X009217Y002680D02*
X009217Y002320D01*
X009585Y002320D02*
X009585Y002500D01*
X009645Y002560D01*
X009765Y002560D01*
X009765Y002440D02*
X009585Y002440D01*
X009585Y002320D02*
X009765Y002320D01*
X009825Y002380D01*
X009765Y002440D01*
X009953Y002380D02*
X010013Y002440D01*
X010133Y002440D01*
X010193Y002500D01*
X010133Y002560D01*
X009953Y002560D01*
X009953Y002380D02*
X010013Y002320D01*
X010193Y002320D01*
X010321Y002320D02*
X010502Y002320D01*
X010562Y002380D01*
X010502Y002440D01*
X010321Y002440D01*
X010321Y002500D02*
X010321Y002320D01*
X010321Y002500D02*
X010382Y002560D01*
X010502Y002560D01*
X010690Y002500D02*
X010750Y002440D01*
X010930Y002440D01*
X010930Y002320D02*
X010930Y002680D01*
X010750Y002680D01*
X010690Y002620D01*
X010690Y002500D01*
X016320Y006194D02*
X016380Y006254D01*
X016320Y006314D01*
X016380Y006374D01*
X016560Y006374D01*
X016560Y006502D02*
X016380Y006502D01*
X016320Y006562D01*
X016380Y006622D01*
X016320Y006682D01*
X016380Y006742D01*
X016560Y006742D01*
X016560Y006871D02*
X016380Y006871D01*
X016320Y006931D01*
X016380Y006991D01*
X016320Y007051D01*
X016380Y007111D01*
X016560Y007111D01*
X016380Y007239D02*
X016380Y007299D01*
X016320Y007299D01*
X016320Y007239D01*
X016380Y007239D01*
X016380Y007423D02*
X016320Y007483D01*
X016320Y007663D01*
X016500Y007663D01*
X016560Y007603D01*
X016560Y007483D01*
X016440Y007483D02*
X016440Y007663D01*
X016380Y007791D02*
X016320Y007851D01*
X016320Y008032D01*
X016320Y008160D02*
X016560Y008160D01*
X016560Y008280D02*
X016560Y008340D01*
X016560Y008280D02*
X016440Y008160D01*
X016560Y008032D02*
X016560Y007851D01*
X016500Y007791D01*
X016380Y007791D01*
X016440Y007483D02*
X016380Y007423D01*
X016380Y008467D02*
X016320Y008527D01*
X016320Y008647D01*
X016380Y008707D01*
X016500Y008707D01*
X016560Y008647D01*
X016560Y008527D01*
X016500Y008467D01*
X016380Y008467D01*
X016320Y008835D02*
X016320Y009015D01*
X016380Y009075D01*
X016500Y009075D01*
X016560Y009015D01*
X016560Y008835D01*
X016680Y008835D02*
X016320Y008835D01*
X016380Y009203D02*
X016320Y009263D01*
X016320Y009383D01*
X016380Y009443D01*
X016500Y009443D01*
X016560Y009383D01*
X016560Y009263D01*
X016500Y009203D01*
X016380Y009203D01*
X016560Y009571D02*
X016560Y009692D01*
X016620Y009632D02*
X016380Y009632D01*
X016320Y009692D01*
X016320Y009817D02*
X016320Y009937D01*
X016320Y009877D02*
X016560Y009877D01*
X016560Y009817D01*
X016680Y009877D02*
X016740Y009877D01*
X016500Y010063D02*
X016560Y010123D01*
X016560Y010303D01*
X016380Y010431D02*
X016380Y010491D01*
X016320Y010491D01*
X016320Y010431D01*
X016380Y010431D01*
X016320Y010303D02*
X016320Y010123D01*
X016380Y010063D01*
X016500Y010063D01*
X016500Y010615D02*
X016380Y010615D01*
X016320Y010675D01*
X016320Y010855D01*
X016380Y010983D02*
X016320Y011043D01*
X016320Y011164D01*
X016380Y011224D01*
X016500Y011224D01*
X016560Y011164D01*
X016560Y011043D01*
X016500Y010983D01*
X016380Y010983D01*
X016560Y010855D02*
X016560Y010675D01*
X016500Y010615D01*
X016560Y011352D02*
X016320Y011352D01*
X016320Y011472D02*
X016500Y011472D01*
X016560Y011532D01*
X016500Y011592D01*
X016320Y011592D01*
X016500Y011472D02*
X016560Y011412D01*
X016560Y011352D01*
X013344Y015828D02*
X013195Y015928D01*
X013178Y016011D01*
X013311Y016211D01*
X013394Y016227D01*
X013544Y016127D01*
X013344Y015828D01*
X013038Y016032D02*
X012938Y016099D01*
X012988Y016065D02*
X013188Y016365D01*
X013238Y016332D02*
X013138Y016398D01*
X016320Y006194D02*
X016380Y006134D01*
X016560Y006134D01*
X001726Y013158D02*
X001526Y013291D01*
X001692Y013324D02*
X001559Y013125D01*
D11*
X004011Y001882D02*
X004031Y001778D01*
X004156Y001695D01*
X004260Y001716D01*
X004427Y001965D01*
X004406Y002070D01*
X004281Y002153D01*
X004177Y002132D01*
X004011Y001882D01*
X004394Y001627D02*
X004414Y001523D01*
X004602Y001398D01*
X004852Y001772D01*
X004664Y001897D01*
X004560Y001877D01*
X004394Y001627D01*
X010732Y000722D02*
X011026Y000780D01*
D12*
X009435Y000495D02*
X009345Y000315D01*
X009255Y000495D01*
X009159Y000495D02*
X009069Y000585D01*
X009069Y000315D01*
X009159Y000315D02*
X008979Y000315D01*
X008883Y000315D02*
X008883Y000360D01*
X008837Y000360D01*
X008837Y000315D01*
X008883Y000315D01*
X008744Y000315D02*
X008564Y000315D01*
X008654Y000315D02*
X008654Y000585D01*
X008744Y000495D01*
D13*
X010800Y015869D02*
X010427Y015943D01*
X010477Y016198D01*
X010536Y016186D01*
X010716Y016528D01*
X010608Y016549D01*
X010614Y016579D01*
X010428Y016616D01*
X010271Y016647D01*
X010265Y016617D01*
X010157Y016639D01*
X010173Y016258D01*
X010252Y016243D01*
X010201Y015988D01*
X009819Y016064D01*
X009869Y016319D01*
X009938Y016305D01*
X010058Y016913D01*
X010244Y017029D01*
X010784Y016922D01*
X010910Y016734D01*
X010791Y016136D01*
X010850Y016124D01*
X010800Y015869D01*
X010801Y015874D02*
X010774Y015874D01*
X010802Y015883D02*
X010731Y015883D01*
X010688Y015891D02*
X010804Y015891D01*
X010806Y015900D02*
X010645Y015900D01*
X010602Y015908D02*
X010807Y015908D01*
X010809Y015917D02*
X010559Y015917D01*
X010516Y015925D02*
X010811Y015925D01*
X010812Y015934D02*
X010473Y015934D01*
X010430Y015942D02*
X010814Y015942D01*
X010816Y015951D02*
X010428Y015951D01*
X010430Y015959D02*
X010817Y015959D01*
X010819Y015968D02*
X010432Y015968D01*
X010433Y015976D02*
X010821Y015976D01*
X010823Y015985D02*
X010435Y015985D01*
X010437Y015993D02*
X010824Y015993D01*
X010826Y016002D02*
X010438Y016002D01*
X010440Y016010D02*
X010828Y016010D01*
X010829Y016019D02*
X010442Y016019D01*
X010444Y016027D02*
X010831Y016027D01*
X010833Y016036D02*
X010445Y016036D01*
X010447Y016044D02*
X010834Y016044D01*
X010836Y016053D02*
X010449Y016053D01*
X010450Y016061D02*
X010838Y016061D01*
X010839Y016070D02*
X010452Y016070D01*
X010454Y016078D02*
X010841Y016078D01*
X010843Y016087D02*
X010455Y016087D01*
X010457Y016095D02*
X010844Y016095D01*
X010846Y016104D02*
X010459Y016104D01*
X010460Y016112D02*
X010848Y016112D01*
X010849Y016121D02*
X010462Y016121D01*
X010464Y016129D02*
X010824Y016129D01*
X010792Y016138D02*
X010465Y016138D01*
X010467Y016146D02*
X010793Y016146D01*
X010795Y016155D02*
X010469Y016155D01*
X010470Y016163D02*
X010797Y016163D01*
X010798Y016172D02*
X010472Y016172D01*
X010474Y016180D02*
X010800Y016180D01*
X010802Y016189D02*
X010538Y016189D01*
X010542Y016197D02*
X010803Y016197D01*
X010805Y016206D02*
X010546Y016206D01*
X010551Y016214D02*
X010807Y016214D01*
X010808Y016223D02*
X010555Y016223D01*
X010560Y016231D02*
X010810Y016231D01*
X010812Y016240D02*
X010564Y016240D01*
X010569Y016248D02*
X010814Y016248D01*
X010815Y016257D02*
X010573Y016257D01*
X010578Y016265D02*
X010817Y016265D01*
X010819Y016274D02*
X010582Y016274D01*
X010587Y016282D02*
X010820Y016282D01*
X010822Y016291D02*
X010591Y016291D01*
X010596Y016299D02*
X010824Y016299D01*
X010825Y016308D02*
X010600Y016308D01*
X010605Y016316D02*
X010827Y016316D01*
X010829Y016325D02*
X010609Y016325D01*
X010614Y016333D02*
X010830Y016333D01*
X010832Y016342D02*
X010618Y016342D01*
X010622Y016350D02*
X010834Y016350D01*
X010835Y016359D02*
X010627Y016359D01*
X010631Y016367D02*
X010837Y016367D01*
X010839Y016376D02*
X010636Y016376D01*
X010640Y016384D02*
X010840Y016384D01*
X010842Y016393D02*
X010645Y016393D01*
X010649Y016401D02*
X010844Y016401D01*
X010845Y016410D02*
X010654Y016410D01*
X010658Y016418D02*
X010847Y016418D01*
X010849Y016427D02*
X010663Y016427D01*
X010667Y016435D02*
X010851Y016435D01*
X010852Y016444D02*
X010672Y016444D01*
X010676Y016452D02*
X010854Y016452D01*
X010856Y016461D02*
X010681Y016461D01*
X010685Y016469D02*
X010857Y016469D01*
X010859Y016478D02*
X010690Y016478D01*
X010694Y016486D02*
X010861Y016486D01*
X010862Y016495D02*
X010699Y016495D01*
X010703Y016503D02*
X010864Y016503D01*
X010866Y016512D02*
X010707Y016512D01*
X010712Y016520D02*
X010867Y016520D01*
X010869Y016529D02*
X010711Y016529D01*
X010669Y016537D02*
X010871Y016537D01*
X010872Y016546D02*
X010626Y016546D01*
X010609Y016554D02*
X010874Y016554D01*
X010876Y016563D02*
X010611Y016563D01*
X010612Y016571D02*
X010877Y016571D01*
X010879Y016580D02*
X010608Y016580D01*
X010565Y016588D02*
X010881Y016588D01*
X010883Y016597D02*
X010522Y016597D01*
X010540Y016614D02*
X010437Y016614D01*
X010428Y016616D02*
X010431Y016635D01*
X010323Y016657D01*
X010349Y016784D01*
X010033Y016784D01*
X010034Y016792D02*
X010871Y016792D01*
X010877Y016784D02*
X010350Y016784D01*
X010349Y016784D02*
X010584Y016738D01*
X010559Y016610D01*
X010431Y016635D01*
X010428Y016616D01*
X010429Y016622D02*
X010497Y016622D01*
X010480Y016605D02*
X010884Y016605D01*
X010886Y016614D02*
X010560Y016614D01*
X010561Y016622D02*
X010888Y016622D01*
X010889Y016631D02*
X010563Y016631D01*
X010565Y016639D02*
X010891Y016639D01*
X010893Y016648D02*
X010566Y016648D01*
X010568Y016656D02*
X010894Y016656D01*
X010896Y016665D02*
X010570Y016665D01*
X010571Y016673D02*
X010898Y016673D01*
X010899Y016682D02*
X010573Y016682D01*
X010575Y016690D02*
X010901Y016690D01*
X010903Y016699D02*
X010577Y016699D01*
X010578Y016707D02*
X010904Y016707D01*
X010906Y016716D02*
X010580Y016716D01*
X010582Y016724D02*
X010908Y016724D01*
X010909Y016733D02*
X010583Y016733D01*
X010565Y016741D02*
X010905Y016741D01*
X010899Y016750D02*
X010522Y016750D01*
X010479Y016758D02*
X010894Y016758D01*
X010888Y016767D02*
X010436Y016767D01*
X010393Y016775D02*
X010882Y016775D01*
X010865Y016801D02*
X010036Y016801D01*
X010038Y016809D02*
X010859Y016809D01*
X010854Y016818D02*
X010039Y016818D01*
X010041Y016826D02*
X010848Y016826D01*
X010842Y016835D02*
X010043Y016835D01*
X010044Y016843D02*
X010837Y016843D01*
X010831Y016852D02*
X010046Y016852D01*
X010048Y016860D02*
X010825Y016860D01*
X010820Y016869D02*
X010049Y016869D01*
X010051Y016877D02*
X010814Y016877D01*
X010808Y016886D02*
X010053Y016886D01*
X010055Y016894D02*
X010803Y016894D01*
X010797Y016903D02*
X010056Y016903D01*
X010058Y016911D02*
X010791Y016911D01*
X010785Y016920D02*
X010069Y016920D01*
X010083Y016928D02*
X010753Y016928D01*
X010710Y016937D02*
X010096Y016937D01*
X010110Y016945D02*
X010667Y016945D01*
X010624Y016954D02*
X010124Y016954D01*
X010137Y016962D02*
X010581Y016962D01*
X010539Y016971D02*
X010151Y016971D01*
X010165Y016979D02*
X010496Y016979D01*
X010453Y016988D02*
X010178Y016988D01*
X010192Y016996D02*
X010410Y016996D01*
X010367Y017005D02*
X010205Y017005D01*
X010219Y017013D02*
X010324Y017013D01*
X010281Y017022D02*
X010233Y017022D01*
X010347Y016775D02*
X010031Y016775D01*
X010029Y016767D02*
X010345Y016767D01*
X010344Y016758D02*
X010028Y016758D01*
X010026Y016750D02*
X010342Y016750D01*
X010340Y016741D02*
X010024Y016741D01*
X010023Y016733D02*
X010339Y016733D01*
X010337Y016724D02*
X010021Y016724D01*
X010019Y016716D02*
X010335Y016716D01*
X010334Y016707D02*
X010018Y016707D01*
X010016Y016699D02*
X010332Y016699D01*
X010330Y016690D02*
X010014Y016690D01*
X010012Y016682D02*
X010328Y016682D01*
X010327Y016673D02*
X010011Y016673D01*
X010009Y016665D02*
X010325Y016665D01*
X010325Y016656D02*
X010007Y016656D01*
X010006Y016648D02*
X010368Y016648D01*
X010351Y016631D02*
X010431Y016631D01*
X010454Y016631D01*
X010429Y016622D02*
X010394Y016622D01*
X010411Y016639D02*
X010308Y016639D01*
X010269Y016639D02*
X010004Y016639D01*
X010002Y016631D02*
X010157Y016631D01*
X010158Y016622D02*
X010001Y016622D01*
X009999Y016614D02*
X010158Y016614D01*
X010158Y016605D02*
X009997Y016605D01*
X009996Y016597D02*
X010159Y016597D01*
X010159Y016588D02*
X009994Y016588D01*
X009992Y016580D02*
X010159Y016580D01*
X010160Y016571D02*
X009991Y016571D01*
X009989Y016563D02*
X010160Y016563D01*
X010160Y016554D02*
X009987Y016554D01*
X009986Y016546D02*
X010161Y016546D01*
X010161Y016537D02*
X009984Y016537D01*
X009982Y016529D02*
X010162Y016529D01*
X010162Y016520D02*
X009980Y016520D01*
X009979Y016512D02*
X010162Y016512D01*
X010163Y016503D02*
X009977Y016503D01*
X009975Y016495D02*
X010163Y016495D01*
X010163Y016486D02*
X009974Y016486D01*
X009972Y016478D02*
X010164Y016478D01*
X010164Y016469D02*
X009970Y016469D01*
X009969Y016461D02*
X010165Y016461D01*
X010165Y016452D02*
X009967Y016452D01*
X009965Y016444D02*
X010165Y016444D01*
X010166Y016435D02*
X009964Y016435D01*
X009962Y016427D02*
X010166Y016427D01*
X010166Y016418D02*
X009960Y016418D01*
X009959Y016410D02*
X010167Y016410D01*
X010167Y016401D02*
X009957Y016401D01*
X009955Y016393D02*
X010167Y016393D01*
X010168Y016384D02*
X009954Y016384D01*
X009952Y016376D02*
X010168Y016376D01*
X010169Y016367D02*
X009950Y016367D01*
X009949Y016359D02*
X010169Y016359D01*
X010169Y016350D02*
X009947Y016350D01*
X009945Y016342D02*
X010170Y016342D01*
X010170Y016333D02*
X009943Y016333D01*
X009942Y016325D02*
X010170Y016325D01*
X010171Y016316D02*
X009940Y016316D01*
X009938Y016308D02*
X010171Y016308D01*
X010171Y016299D02*
X009865Y016299D01*
X009864Y016291D02*
X010172Y016291D01*
X010172Y016282D02*
X009862Y016282D01*
X009860Y016274D02*
X010173Y016274D01*
X010173Y016265D02*
X009859Y016265D01*
X009857Y016257D02*
X010180Y016257D01*
X010223Y016248D02*
X009855Y016248D01*
X009854Y016240D02*
X010251Y016240D01*
X010249Y016231D02*
X009852Y016231D01*
X009850Y016223D02*
X010248Y016223D01*
X010246Y016214D02*
X009849Y016214D01*
X009847Y016206D02*
X010244Y016206D01*
X010243Y016197D02*
X009845Y016197D01*
X009843Y016189D02*
X010241Y016189D01*
X010239Y016180D02*
X009842Y016180D01*
X009840Y016172D02*
X010238Y016172D01*
X010236Y016163D02*
X009838Y016163D01*
X009837Y016155D02*
X010234Y016155D01*
X010233Y016146D02*
X009835Y016146D01*
X009833Y016138D02*
X010231Y016138D01*
X010229Y016129D02*
X009832Y016129D01*
X009830Y016121D02*
X010228Y016121D01*
X010226Y016112D02*
X009828Y016112D01*
X009827Y016104D02*
X010224Y016104D01*
X010223Y016095D02*
X009825Y016095D01*
X009823Y016087D02*
X010221Y016087D01*
X010219Y016078D02*
X009822Y016078D01*
X009820Y016070D02*
X010217Y016070D01*
X010216Y016061D02*
X009829Y016061D01*
X009872Y016053D02*
X010214Y016053D01*
X010212Y016044D02*
X009915Y016044D01*
X009958Y016036D02*
X010211Y016036D01*
X010209Y016027D02*
X010001Y016027D01*
X010044Y016019D02*
X010207Y016019D01*
X010206Y016010D02*
X010087Y016010D01*
X010130Y016002D02*
X010204Y016002D01*
X010202Y015993D02*
X010173Y015993D01*
X010476Y016189D02*
X010524Y016189D01*
X010481Y016197D02*
X010477Y016197D01*
X010266Y016622D02*
X010239Y016622D01*
X010267Y016631D02*
X010196Y016631D01*
X009923Y016308D02*
X009867Y016308D01*
X009869Y016316D02*
X009880Y016316D01*
M02*
