%
M48
M72
T01C0.0200
T02C0.0400
T03C0.0866
%
T01
X3140Y3210
X4090Y4030
X1370Y5490
X2030Y8910
X770Y8990
X3140Y14760
X6700Y16370
X7140Y15710
X8870Y16140
X8840Y16780
X10740Y15850
X13670Y13630
X14620Y14570
X15642Y12721
X14840Y12100
X15340Y10460
X16020Y8910
X16940Y8914
X14600Y5550
X13780Y4090
X14610Y3190
X12330Y3320
X8850Y2080
X8890Y1450
X8890Y820
T02
X10440Y1290
X4570Y2440
X2380Y13280
X13230Y15460
T03
X11850Y16250
X1600Y11900
X5900Y1650
X11850Y1650
M30
