G75*
%MOIN*%
%OFA0B0*%
%FSLAX24Y24*%
%IPPOS*%
%LPD*%
%AMOC8*
5,1,8,0,0,1.08239X$1,22.5*
%
%ADD10C,0.0640*%
%ADD11C,0.1266*%
%ADD12C,0.0120*%
%ADD13C,0.0400*%
%ADD14C,0.0160*%
%ADD15C,0.0100*%
D10*
X004570Y002440D03*
X010440Y001290D03*
X002380Y013280D03*
X013230Y015460D03*
D11*
X011850Y016250D03*
X001600Y011900D03*
X005900Y001650D03*
X011850Y001650D03*
D12*
X011293Y002215D02*
X012422Y002215D01*
X012462Y002173D02*
X012373Y002264D01*
X012272Y002339D01*
X012159Y002397D01*
X012039Y002435D01*
X011914Y002454D01*
X011788Y002453D01*
X011663Y002431D01*
X011544Y002389D01*
X011434Y002330D01*
X011334Y002256D01*
X011246Y002166D01*
X011174Y002065D01*
X011117Y001954D01*
X011078Y001835D01*
X011058Y001712D01*
X011057Y001587D01*
X011074Y001463D01*
X011111Y001344D01*
X011371Y000586D01*
X012941Y001236D01*
X012589Y001956D01*
X012534Y002070D01*
X012462Y002173D01*
X012516Y002096D02*
X011196Y002096D01*
X011129Y001978D02*
X012579Y001978D01*
X012637Y001859D02*
X011086Y001859D01*
X011063Y001741D02*
X012695Y001741D01*
X012753Y001622D02*
X011057Y001622D01*
X011069Y001504D02*
X012811Y001504D01*
X012869Y001385D02*
X011098Y001385D01*
X011137Y001267D02*
X012927Y001267D01*
X012729Y001148D02*
X011178Y001148D01*
X011219Y001030D02*
X012442Y001030D01*
X012156Y000911D02*
X011259Y000911D01*
X011300Y000793D02*
X011870Y000793D01*
X011584Y000674D02*
X011341Y000674D01*
X011439Y002333D02*
X012280Y002333D01*
X011932Y002452D02*
X011781Y002452D01*
X006704Y001714D02*
X006703Y001588D01*
X006681Y001463D01*
X006639Y001344D01*
X006379Y000586D01*
X004809Y001236D01*
X005161Y001956D01*
X005220Y002066D01*
X005294Y002166D01*
X005384Y002254D01*
X005485Y002326D01*
X005596Y002383D01*
X005715Y002422D01*
X005838Y002442D01*
X005963Y002443D01*
X006087Y002426D01*
X006206Y002389D01*
X006320Y002334D01*
X006423Y002262D01*
X006514Y002173D01*
X006589Y002072D01*
X006647Y001959D01*
X006685Y001839D01*
X006704Y001714D01*
X006700Y001741D02*
X005055Y001741D01*
X005113Y001859D02*
X006679Y001859D01*
X006637Y001978D02*
X005172Y001978D01*
X005242Y002096D02*
X006571Y002096D01*
X006472Y002215D02*
X005344Y002215D01*
X005498Y002333D02*
X006322Y002333D01*
X006703Y001622D02*
X004997Y001622D01*
X004939Y001504D02*
X006688Y001504D01*
X006653Y001385D02*
X004881Y001385D01*
X004823Y001267D02*
X006613Y001267D01*
X006572Y001148D02*
X005021Y001148D01*
X005308Y001030D02*
X006531Y001030D01*
X006491Y000911D02*
X005594Y000911D01*
X005880Y000793D02*
X006450Y000793D01*
X006409Y000674D02*
X006166Y000674D01*
X001909Y011153D02*
X002022Y011211D01*
X002123Y011286D01*
X002212Y011377D01*
X002284Y011480D01*
X002339Y011594D01*
X002376Y011713D01*
X002393Y011837D01*
X002392Y011962D01*
X002372Y012085D01*
X002333Y012204D01*
X002276Y012315D01*
X002204Y012416D01*
X002116Y012506D01*
X002016Y012580D01*
X001906Y012639D01*
X001186Y012991D01*
X000536Y011421D01*
X001294Y011161D01*
X001413Y011119D01*
X001538Y011097D01*
X001664Y011096D01*
X001789Y011115D01*
X001909Y011153D01*
X002035Y011221D02*
X001120Y011221D01*
X000774Y011339D02*
X002175Y011339D01*
X002268Y011458D02*
X000551Y011458D01*
X000600Y011576D02*
X002331Y011576D01*
X002370Y011695D02*
X000649Y011695D01*
X000698Y011813D02*
X002390Y011813D01*
X002392Y011932D02*
X000747Y011932D01*
X000796Y012050D02*
X002378Y012050D01*
X002344Y012169D02*
X000845Y012169D01*
X000894Y012287D02*
X002291Y012287D01*
X002212Y012406D02*
X000943Y012406D01*
X000993Y012524D02*
X002092Y012524D01*
X001899Y012643D02*
X001042Y012643D01*
X001091Y012761D02*
X001657Y012761D01*
X001415Y012880D02*
X001140Y012880D01*
X001511Y011102D02*
X001705Y011102D01*
X011103Y015941D02*
X011161Y015828D01*
X011236Y015727D01*
X011327Y015638D01*
X011430Y015566D01*
X011544Y015511D01*
X011663Y015474D01*
X011787Y015457D01*
X011912Y015458D01*
X012035Y015478D01*
X012154Y015517D01*
X012265Y015574D01*
X012366Y015646D01*
X012456Y015734D01*
X012530Y015834D01*
X012589Y015944D01*
X012941Y016664D01*
X011371Y017314D01*
X011111Y016556D01*
X011069Y016437D01*
X011047Y016312D01*
X011046Y016186D01*
X011065Y016061D01*
X011103Y015941D01*
X011097Y015961D02*
X012597Y015961D01*
X012655Y016079D02*
X011062Y016079D01*
X011046Y016198D02*
X012713Y016198D01*
X012771Y016316D02*
X011048Y016316D01*
X011069Y016435D02*
X012829Y016435D01*
X012887Y016553D02*
X011110Y016553D01*
X011150Y016672D02*
X012923Y016672D01*
X012637Y016790D02*
X011191Y016790D01*
X011232Y016909D02*
X012351Y016909D01*
X012065Y017027D02*
X011272Y017027D01*
X011313Y017146D02*
X011778Y017146D01*
X011492Y017264D02*
X011354Y017264D01*
X011154Y015842D02*
X012535Y015842D01*
X012445Y015724D02*
X011239Y015724D01*
X011374Y015605D02*
X012309Y015605D01*
X012060Y015487D02*
X011624Y015487D01*
D13*
X003140Y003210D03*
X004090Y004030D03*
X008850Y002080D03*
X008890Y001450D03*
X008890Y000820D03*
X012330Y003320D03*
X013780Y004090D03*
X014610Y003190D03*
X016020Y008910D03*
X016940Y008914D03*
X015340Y010460D03*
X015642Y012721D03*
X014620Y014570D03*
X013670Y013630D03*
X008880Y016550D03*
X007390Y015460D03*
X006700Y016370D03*
X003140Y014760D03*
X000770Y008990D03*
X002030Y008910D03*
D14*
X002840Y011620D01*
X003140Y014760D01*
X006700Y016370D02*
X007530Y016550D01*
X008880Y016550D01*
X008990Y015450D02*
X007510Y015350D01*
X007390Y015460D01*
X008990Y015450D02*
X010990Y015170D01*
X011500Y014930D01*
X012970Y015450D01*
X013230Y015460D01*
X014620Y014570D02*
X013670Y013630D01*
X015337Y013248D02*
X015642Y012721D01*
X015340Y010460D02*
X015630Y010030D01*
X015620Y007220D01*
X014530Y003670D01*
X014610Y003190D01*
X013780Y004090D02*
X012890Y003220D01*
X012150Y002800D01*
X011220Y002540D01*
X009950Y001930D01*
X008890Y000820D01*
X008890Y001450D02*
X009700Y002310D01*
X012330Y003320D01*
X008850Y002080D02*
X007720Y002080D01*
X005210Y003200D01*
X003140Y003210D01*
X004090Y004030D02*
X002480Y005680D01*
X000770Y008990D01*
X016020Y008910D02*
X016940Y008914D01*
D15*
X017164Y008671D02*
X017477Y008671D01*
X017470Y008573D02*
X015835Y008573D01*
X015835Y008629D02*
X015954Y008580D01*
X016086Y008580D01*
X016207Y008630D01*
X016278Y008701D01*
X016684Y008703D01*
X016753Y008634D01*
X016874Y008584D01*
X017006Y008584D01*
X017127Y008634D01*
X017220Y008727D01*
X017270Y008848D01*
X017270Y008979D01*
X017220Y009101D01*
X017127Y009194D01*
X017006Y009244D01*
X016874Y009244D01*
X016753Y009194D01*
X016682Y009123D01*
X016276Y009121D01*
X016207Y009190D01*
X016086Y009240D01*
X015954Y009240D01*
X015837Y009191D01*
X015840Y010009D01*
X015853Y010075D01*
X015840Y010094D01*
X015840Y010116D01*
X015793Y010164D01*
X015658Y010365D01*
X015670Y010394D01*
X015670Y010526D01*
X015620Y010647D01*
X015527Y010740D01*
X015406Y010790D01*
X015274Y010790D01*
X015153Y010740D01*
X015061Y010648D01*
X015007Y010883D01*
X014640Y011792D01*
X014139Y012635D01*
X013583Y013309D01*
X013604Y013300D01*
X013736Y013300D01*
X013857Y013350D01*
X013950Y013443D01*
X014000Y013564D01*
X014000Y013661D01*
X014585Y014240D01*
X014686Y014240D01*
X014807Y014290D01*
X014900Y014383D01*
X014950Y014504D01*
X014950Y014636D01*
X014900Y014757D01*
X014807Y014850D01*
X014686Y014900D01*
X014554Y014900D01*
X014433Y014850D01*
X014340Y014757D01*
X014290Y014636D01*
X014290Y014539D01*
X013705Y013960D01*
X013604Y013960D01*
X013483Y013910D01*
X013390Y013817D01*
X013340Y013696D01*
X013340Y013564D01*
X013351Y013537D01*
X012783Y014044D01*
X012783Y014044D01*
X011960Y014577D01*
X011960Y014577D01*
X011594Y014741D01*
X012864Y015190D01*
X012975Y015079D01*
X013140Y015010D01*
X013320Y015010D01*
X013485Y015079D01*
X013611Y015205D01*
X013680Y015370D01*
X013680Y015550D01*
X013611Y015715D01*
X013485Y015841D01*
X013320Y015910D01*
X013140Y015910D01*
X012975Y015841D01*
X012849Y015715D01*
X012807Y015615D01*
X012495Y015505D01*
X012541Y015538D01*
X012544Y015554D01*
X012544Y015554D01*
X012561Y015557D01*
X012599Y015608D01*
X012645Y015653D01*
X012645Y015670D01*
X012661Y015675D01*
X012691Y015731D01*
X012730Y015783D01*
X012728Y015795D01*
X012758Y015857D01*
X012794Y015924D01*
X012793Y015928D01*
X013055Y016464D01*
X013198Y016393D01*
X014132Y015769D01*
X014978Y015028D01*
X015719Y014182D01*
X016343Y013248D01*
X016841Y012239D01*
X017202Y011175D01*
X017421Y010072D01*
X017495Y008950D01*
X017421Y007828D01*
X017202Y006725D01*
X016841Y005661D01*
X016343Y004652D01*
X015719Y003718D01*
X014978Y002872D01*
X014132Y002131D01*
X013198Y001507D01*
X013073Y001445D01*
X012806Y001992D01*
X011915Y001623D01*
X011877Y001715D01*
X012765Y002083D01*
X012763Y002089D01*
X012704Y002198D01*
X012633Y002299D01*
X012549Y002390D01*
X012549Y002390D01*
X012455Y002470D01*
X012351Y002538D01*
X012240Y002592D01*
X012221Y002599D01*
X012231Y002605D01*
X012290Y002621D01*
X012304Y002646D01*
X012944Y003009D01*
X012975Y003009D01*
X013017Y003051D01*
X013069Y003080D01*
X013077Y003109D01*
X013743Y003760D01*
X013846Y003760D01*
X013967Y003810D01*
X014060Y003903D01*
X014110Y004024D01*
X014110Y004156D01*
X014060Y004277D01*
X013967Y004370D01*
X013846Y004420D01*
X013714Y004420D01*
X013593Y004370D01*
X013500Y004277D01*
X013450Y004156D01*
X013450Y004061D01*
X012763Y003389D01*
X012660Y003331D01*
X012660Y003386D01*
X012610Y003507D01*
X012517Y003600D01*
X012438Y003633D01*
X012783Y003856D01*
X013515Y004509D01*
X014139Y005265D01*
X014640Y006108D01*
X015007Y007017D01*
X015007Y007017D01*
X015230Y007972D01*
X015230Y007972D01*
X015305Y008950D01*
X015230Y009928D01*
X015173Y010172D01*
X015274Y010130D01*
X015309Y010130D01*
X015420Y009966D01*
X015410Y007252D01*
X014339Y003764D01*
X014309Y003721D01*
X014315Y003684D01*
X014304Y003648D01*
X013628Y003648D01*
X013729Y003746D02*
X014326Y003746D01*
X014304Y003648D02*
X014328Y003602D01*
X014361Y003408D01*
X014330Y003377D01*
X014280Y003256D01*
X014280Y003124D01*
X014330Y003003D01*
X014423Y002910D01*
X014544Y002860D01*
X014676Y002860D01*
X014797Y002910D01*
X014890Y003003D01*
X014940Y003124D01*
X014940Y003256D01*
X014890Y003377D01*
X014797Y003470D01*
X014775Y003479D01*
X014745Y003656D01*
X015805Y007108D01*
X015830Y007132D01*
X015830Y007188D01*
X015846Y007242D01*
X015830Y007272D01*
X015835Y008629D01*
X015834Y008474D02*
X017464Y008474D01*
X017457Y008376D02*
X015834Y008376D01*
X015834Y008277D02*
X017451Y008277D01*
X017444Y008179D02*
X015833Y008179D01*
X015833Y008080D02*
X017438Y008080D01*
X017432Y007982D02*
X015833Y007982D01*
X015832Y007883D02*
X017425Y007883D01*
X017421Y007828D02*
X017421Y007828D01*
X017413Y007785D02*
X015832Y007785D01*
X015832Y007686D02*
X017393Y007686D01*
X017374Y007588D02*
X015831Y007588D01*
X015831Y007489D02*
X017354Y007489D01*
X017334Y007391D02*
X015831Y007391D01*
X015830Y007292D02*
X017315Y007292D01*
X017295Y007194D02*
X015832Y007194D01*
X015801Y007095D02*
X017276Y007095D01*
X017256Y006997D02*
X015771Y006997D01*
X015741Y006898D02*
X017236Y006898D01*
X017217Y006800D02*
X015711Y006800D01*
X015680Y006701D02*
X017194Y006701D01*
X017160Y006603D02*
X015650Y006603D01*
X015620Y006504D02*
X017127Y006504D01*
X017094Y006406D02*
X015590Y006406D01*
X015559Y006307D02*
X017060Y006307D01*
X017027Y006209D02*
X015529Y006209D01*
X015499Y006110D02*
X016993Y006110D01*
X016960Y006012D02*
X015469Y006012D01*
X015438Y005913D02*
X016926Y005913D01*
X016893Y005815D02*
X015408Y005815D01*
X015378Y005716D02*
X016859Y005716D01*
X016819Y005618D02*
X015348Y005618D01*
X015317Y005519D02*
X016771Y005519D01*
X016722Y005421D02*
X015287Y005421D01*
X015257Y005322D02*
X016674Y005322D01*
X016625Y005224D02*
X015227Y005224D01*
X015196Y005125D02*
X016577Y005125D01*
X016528Y005027D02*
X015166Y005027D01*
X015136Y004928D02*
X016479Y004928D01*
X016431Y004830D02*
X015106Y004830D01*
X015075Y004731D02*
X016382Y004731D01*
X016330Y004633D02*
X015045Y004633D01*
X015015Y004534D02*
X016264Y004534D01*
X016199Y004436D02*
X014985Y004436D01*
X014954Y004337D02*
X016133Y004337D01*
X016067Y004239D02*
X014924Y004239D01*
X014894Y004140D02*
X016001Y004140D01*
X015935Y004042D02*
X014864Y004042D01*
X014834Y003943D02*
X015869Y003943D01*
X015804Y003845D02*
X014803Y003845D01*
X014773Y003746D02*
X015738Y003746D01*
X015657Y003648D02*
X014747Y003648D01*
X014763Y003549D02*
X015571Y003549D01*
X015485Y003451D02*
X014816Y003451D01*
X014900Y003352D02*
X015398Y003352D01*
X015312Y003254D02*
X014940Y003254D01*
X014940Y003155D02*
X015225Y003155D01*
X015139Y003057D02*
X014912Y003057D01*
X014845Y002958D02*
X015053Y002958D01*
X014963Y002860D02*
X012680Y002860D01*
X012507Y002761D02*
X014851Y002761D01*
X014738Y002663D02*
X012333Y002663D01*
X012298Y002564D02*
X014626Y002564D01*
X014514Y002466D02*
X012461Y002466D01*
X012570Y002367D02*
X014401Y002367D01*
X014289Y002269D02*
X012654Y002269D01*
X012719Y002170D02*
X014177Y002170D01*
X014043Y002072D02*
X012737Y002072D01*
X012760Y001973D02*
X012499Y001973D01*
X012523Y001875D02*
X012261Y001875D01*
X012285Y001776D02*
X012024Y001776D01*
X012047Y001678D02*
X011893Y001678D01*
X011877Y001715D02*
X011584Y002424D01*
X011487Y002397D01*
X011785Y001677D01*
X011877Y001715D01*
X011852Y001776D02*
X011744Y001776D01*
X011784Y001678D02*
X011786Y001678D01*
X011785Y001677D02*
X011823Y001585D01*
X010933Y001216D01*
X011044Y000897D01*
X011128Y000649D01*
X011125Y000648D01*
X010022Y000429D01*
X008900Y000355D01*
X007778Y000429D01*
X006675Y000648D01*
X006609Y000670D01*
X006819Y001282D01*
X006840Y001343D01*
X006854Y001353D01*
X006865Y001415D01*
X006886Y001475D01*
X006879Y001491D01*
X006879Y001494D01*
X006892Y001507D01*
X006892Y001570D01*
X006903Y001632D01*
X006893Y001647D01*
X006893Y001650D01*
X006904Y001665D01*
X006894Y001727D01*
X006895Y001790D01*
X006883Y001803D01*
X006882Y001807D01*
X006890Y001822D01*
X006871Y001883D01*
X006861Y001945D01*
X006847Y001956D01*
X006846Y001959D01*
X006852Y001976D01*
X006823Y002032D01*
X006803Y002092D01*
X006788Y002100D01*
X006786Y002104D01*
X006789Y002121D01*
X006751Y002172D01*
X006722Y002228D01*
X006706Y002234D01*
X006703Y002237D01*
X006703Y002254D01*
X006658Y002299D01*
X006630Y002337D01*
X007599Y001904D01*
X007633Y001870D01*
X007675Y001870D01*
X007714Y001853D01*
X007759Y001870D01*
X008593Y001870D01*
X008663Y001800D01*
X008768Y001757D01*
X008703Y001730D01*
X008610Y001637D01*
X008560Y001516D01*
X008560Y001384D01*
X008610Y001263D01*
X008703Y001170D01*
X008788Y001135D01*
X008703Y001100D01*
X008610Y001007D01*
X008560Y000886D01*
X008560Y000754D01*
X008610Y000633D01*
X008703Y000540D01*
X008824Y000490D01*
X008956Y000490D01*
X009077Y000540D01*
X009170Y000633D01*
X009220Y000754D01*
X009220Y000861D01*
X010075Y001757D01*
X011016Y002209D01*
X010974Y002144D01*
X010974Y002144D01*
X010960Y002114D01*
X010921Y002035D01*
X010921Y002035D01*
X010882Y001920D01*
X010856Y001802D01*
X010844Y001682D01*
X010844Y001682D01*
X010846Y001561D01*
X010846Y001561D01*
X010852Y001516D01*
X010842Y001536D01*
X010798Y001596D01*
X010746Y001648D01*
X010686Y001692D01*
X010620Y001726D01*
X010550Y001748D01*
X010477Y001760D01*
X010403Y001760D01*
X010397Y001759D01*
X010479Y001349D01*
X010381Y001329D01*
X010401Y001231D01*
X010499Y001251D01*
X010581Y000841D01*
X010620Y000854D01*
X010686Y000888D01*
X010746Y000932D01*
X010798Y000984D01*
X010842Y001044D01*
X010876Y001110D01*
X010898Y001180D01*
X010910Y001253D01*
X010910Y001315D01*
X011785Y001677D01*
X011809Y001579D02*
X011548Y001579D01*
X011571Y001481D02*
X011310Y001481D01*
X011334Y001382D02*
X011072Y001382D01*
X011096Y001284D02*
X010910Y001284D01*
X010899Y001185D02*
X010944Y001185D01*
X010978Y001087D02*
X010864Y001087D01*
X010802Y000988D02*
X011012Y000988D01*
X011044Y000897D02*
X011044Y000897D01*
X011046Y000890D02*
X010688Y000890D01*
X010571Y000890D02*
X010469Y000890D01*
X010483Y000821D02*
X010401Y001231D01*
X009991Y001149D01*
X010004Y001110D01*
X010038Y001044D01*
X010082Y000984D01*
X010134Y000932D01*
X010194Y000888D01*
X010260Y000854D01*
X010330Y000832D01*
X010403Y000820D01*
X010477Y000820D01*
X010483Y000821D01*
X010449Y000988D02*
X010551Y000988D01*
X010532Y001087D02*
X010430Y001087D01*
X010410Y001185D02*
X010512Y001185D01*
X010390Y001284D02*
X010152Y001284D01*
X010170Y001185D02*
X009529Y001185D01*
X009623Y001284D02*
X009970Y001284D01*
X009970Y001253D02*
X009971Y001247D01*
X010381Y001329D01*
X010299Y001739D01*
X010260Y001726D01*
X010194Y001692D01*
X010134Y001648D01*
X010082Y001596D01*
X010038Y001536D01*
X010004Y001470D01*
X009982Y001400D01*
X009970Y001327D01*
X009970Y001253D01*
X009979Y001382D02*
X009717Y001382D01*
X009811Y001481D02*
X010010Y001481D01*
X010069Y001579D02*
X009905Y001579D01*
X009999Y001678D02*
X010174Y001678D01*
X010114Y001776D02*
X010853Y001776D01*
X010856Y001802D02*
X010856Y001802D01*
X010872Y001875D02*
X010319Y001875D01*
X010312Y001678D02*
X010414Y001678D01*
X010433Y001579D02*
X010331Y001579D01*
X010351Y001481D02*
X010453Y001481D01*
X010473Y001382D02*
X010371Y001382D01*
X010706Y001678D02*
X010844Y001678D01*
X010846Y001579D02*
X010811Y001579D01*
X010882Y001920D02*
X010882Y001920D01*
X010900Y001973D02*
X010525Y001973D01*
X010730Y002072D02*
X010939Y002072D01*
X010935Y002170D02*
X010991Y002170D01*
X011499Y002367D02*
X011607Y002367D01*
X011648Y002269D02*
X011540Y002269D01*
X011580Y002170D02*
X011689Y002170D01*
X011730Y002072D02*
X011621Y002072D01*
X011662Y001973D02*
X011770Y001973D01*
X011811Y001875D02*
X011703Y001875D01*
X012815Y001973D02*
X013896Y001973D01*
X013748Y001875D02*
X012863Y001875D01*
X012911Y001776D02*
X013601Y001776D01*
X013453Y001678D02*
X012959Y001678D01*
X013007Y001579D02*
X013306Y001579D01*
X013145Y001481D02*
X013056Y001481D01*
X012854Y002958D02*
X014375Y002958D01*
X014308Y003057D02*
X013027Y003057D01*
X013124Y003155D02*
X014280Y003155D01*
X014280Y003254D02*
X013225Y003254D01*
X013325Y003352D02*
X014320Y003352D01*
X014354Y003451D02*
X013426Y003451D01*
X013527Y003549D02*
X014337Y003549D01*
X014364Y003845D02*
X014001Y003845D01*
X014076Y003943D02*
X014394Y003943D01*
X014424Y004042D02*
X014110Y004042D01*
X014110Y004140D02*
X014455Y004140D01*
X014485Y004239D02*
X014076Y004239D01*
X014000Y004337D02*
X014515Y004337D01*
X014545Y004436D02*
X013433Y004436D01*
X013515Y004509D02*
X013515Y004509D01*
X013536Y004534D02*
X014576Y004534D01*
X014606Y004633D02*
X013617Y004633D01*
X013698Y004731D02*
X014636Y004731D01*
X014666Y004830D02*
X013780Y004830D01*
X013861Y004928D02*
X014697Y004928D01*
X014727Y005027D02*
X013942Y005027D01*
X014023Y005125D02*
X014757Y005125D01*
X014787Y005224D02*
X014105Y005224D01*
X014139Y005265D02*
X014139Y005265D01*
X014173Y005322D02*
X014818Y005322D01*
X014848Y005421D02*
X014231Y005421D01*
X014290Y005519D02*
X014878Y005519D01*
X014908Y005618D02*
X014348Y005618D01*
X014407Y005716D02*
X014939Y005716D01*
X014969Y005815D02*
X014465Y005815D01*
X014524Y005913D02*
X014999Y005913D01*
X015029Y006012D02*
X014583Y006012D01*
X014640Y006108D02*
X014640Y006108D01*
X014641Y006110D02*
X015060Y006110D01*
X015090Y006209D02*
X014680Y006209D01*
X014720Y006307D02*
X015120Y006307D01*
X015150Y006406D02*
X014760Y006406D01*
X014800Y006504D02*
X015180Y006504D01*
X015211Y006603D02*
X014839Y006603D01*
X014879Y006701D02*
X015241Y006701D01*
X015271Y006800D02*
X014919Y006800D01*
X014958Y006898D02*
X015301Y006898D01*
X015332Y006997D02*
X014998Y006997D01*
X015025Y007095D02*
X015362Y007095D01*
X015392Y007194D02*
X015048Y007194D01*
X015071Y007292D02*
X015410Y007292D01*
X015411Y007391D02*
X015094Y007391D01*
X015117Y007489D02*
X015411Y007489D01*
X015411Y007588D02*
X015140Y007588D01*
X015163Y007686D02*
X015412Y007686D01*
X015412Y007785D02*
X015186Y007785D01*
X015209Y007883D02*
X015412Y007883D01*
X015413Y007982D02*
X015231Y007982D01*
X015238Y008080D02*
X015413Y008080D01*
X015413Y008179D02*
X015246Y008179D01*
X015253Y008277D02*
X015414Y008277D01*
X015414Y008376D02*
X015261Y008376D01*
X015268Y008474D02*
X015414Y008474D01*
X015415Y008573D02*
X015276Y008573D01*
X015284Y008671D02*
X015415Y008671D01*
X015416Y008770D02*
X015291Y008770D01*
X015299Y008868D02*
X015416Y008868D01*
X015416Y008967D02*
X015304Y008967D01*
X015296Y009065D02*
X015417Y009065D01*
X015417Y009164D02*
X015289Y009164D01*
X015281Y009262D02*
X015417Y009262D01*
X015418Y009361D02*
X015273Y009361D01*
X015266Y009459D02*
X015418Y009459D01*
X015418Y009558D02*
X015258Y009558D01*
X015251Y009656D02*
X015419Y009656D01*
X015419Y009755D02*
X015243Y009755D01*
X015236Y009853D02*
X015419Y009853D01*
X015420Y009952D02*
X015224Y009952D01*
X015230Y009928D02*
X015230Y009928D01*
X015201Y010050D02*
X015363Y010050D01*
X015230Y010149D02*
X015178Y010149D01*
X015670Y010346D02*
X017367Y010346D01*
X017347Y010444D02*
X015670Y010444D01*
X015663Y010543D02*
X017328Y010543D01*
X017308Y010641D02*
X015622Y010641D01*
X015527Y010740D02*
X017289Y010740D01*
X017269Y010838D02*
X015017Y010838D01*
X015007Y010883D02*
X015007Y010883D01*
X014985Y010937D02*
X017249Y010937D01*
X017230Y011035D02*
X014945Y011035D01*
X014905Y011134D02*
X017210Y011134D01*
X017183Y011232D02*
X014866Y011232D01*
X014826Y011331D02*
X017149Y011331D01*
X017116Y011429D02*
X014786Y011429D01*
X014747Y011528D02*
X017082Y011528D01*
X017049Y011626D02*
X014707Y011626D01*
X014667Y011725D02*
X017015Y011725D01*
X016982Y011823D02*
X014622Y011823D01*
X014640Y011792D02*
X014640Y011792D01*
X014563Y011922D02*
X016949Y011922D01*
X016915Y012020D02*
X014504Y012020D01*
X014446Y012119D02*
X016882Y012119D01*
X016848Y012217D02*
X014387Y012217D01*
X014329Y012316D02*
X016803Y012316D01*
X016755Y012414D02*
X015764Y012414D01*
X015707Y012391D02*
X015829Y012441D01*
X015921Y012534D01*
X015972Y012655D01*
X015972Y012786D01*
X015921Y012908D01*
X015829Y013000D01*
X015707Y013051D01*
X015694Y013051D01*
X015476Y013428D01*
X015308Y013473D01*
X015157Y013386D01*
X015112Y013218D01*
X015332Y012836D01*
X015312Y012786D01*
X015312Y012655D01*
X015362Y012534D01*
X015455Y012441D01*
X015576Y012391D01*
X015707Y012391D01*
X015520Y012414D02*
X014270Y012414D01*
X014212Y012513D02*
X015383Y012513D01*
X015330Y012611D02*
X014153Y012611D01*
X014139Y012635D02*
X014139Y012635D01*
X014077Y012710D02*
X015312Y012710D01*
X015321Y012808D02*
X013996Y012808D01*
X013915Y012907D02*
X015292Y012907D01*
X015235Y013005D02*
X013834Y013005D01*
X013752Y013104D02*
X015178Y013104D01*
X015121Y013202D02*
X013671Y013202D01*
X013737Y013301D02*
X015134Y013301D01*
X015180Y013399D02*
X013906Y013399D01*
X013972Y013498D02*
X016176Y013498D01*
X016111Y013596D02*
X014000Y013596D01*
X014034Y013695D02*
X016045Y013695D01*
X015979Y013793D02*
X014133Y013793D01*
X014233Y013892D02*
X015913Y013892D01*
X015847Y013990D02*
X014332Y013990D01*
X014432Y014089D02*
X015782Y014089D01*
X015715Y014187D02*
X014532Y014187D01*
X014796Y014286D02*
X015628Y014286D01*
X015542Y014384D02*
X014900Y014384D01*
X014941Y014483D02*
X015456Y014483D01*
X015369Y014581D02*
X014950Y014581D01*
X014932Y014680D02*
X015283Y014680D01*
X015196Y014778D02*
X014879Y014778D01*
X014742Y014877D02*
X015110Y014877D01*
X015024Y014975D02*
X012257Y014975D01*
X011979Y014877D02*
X014498Y014877D01*
X014361Y014778D02*
X011700Y014778D01*
X011731Y014680D02*
X014308Y014680D01*
X014290Y014581D02*
X011951Y014581D01*
X012105Y014483D02*
X014233Y014483D01*
X014133Y014384D02*
X012258Y014384D01*
X012410Y014286D02*
X014034Y014286D01*
X013934Y014187D02*
X012562Y014187D01*
X012714Y014089D02*
X013835Y014089D01*
X013735Y013990D02*
X012843Y013990D01*
X012954Y013892D02*
X013465Y013892D01*
X013380Y013793D02*
X013064Y013793D01*
X013175Y013695D02*
X013340Y013695D01*
X013340Y013596D02*
X013285Y013596D01*
X013590Y013301D02*
X013603Y013301D01*
X013473Y015074D02*
X014925Y015074D01*
X014813Y015172D02*
X013578Y015172D01*
X013639Y015271D02*
X014701Y015271D01*
X014588Y015369D02*
X013679Y015369D01*
X013680Y015468D02*
X014476Y015468D01*
X014364Y015566D02*
X013673Y015566D01*
X013632Y015665D02*
X014251Y015665D01*
X014139Y015763D02*
X013563Y015763D01*
X013437Y015862D02*
X013994Y015862D01*
X013846Y015960D02*
X012809Y015960D01*
X012857Y016059D02*
X013699Y016059D01*
X013551Y016157D02*
X012905Y016157D01*
X012953Y016256D02*
X013404Y016256D01*
X013257Y016354D02*
X013001Y016354D01*
X013050Y016453D02*
X013078Y016453D01*
X013023Y015862D02*
X012761Y015862D01*
X012715Y015763D02*
X012897Y015763D01*
X012828Y015665D02*
X012645Y015665D01*
X012645Y015670D02*
X012645Y015670D01*
X012668Y015566D02*
X012567Y015566D01*
X012814Y015172D02*
X012882Y015172D01*
X012987Y015074D02*
X012535Y015074D01*
X015492Y013399D02*
X016242Y013399D01*
X016308Y013301D02*
X015549Y013301D01*
X015606Y013202D02*
X016366Y013202D01*
X016414Y013104D02*
X015663Y013104D01*
X015818Y013005D02*
X016463Y013005D01*
X016512Y012907D02*
X015922Y012907D01*
X015963Y012808D02*
X016560Y012808D01*
X016609Y012710D02*
X015972Y012710D01*
X015953Y012611D02*
X016657Y012611D01*
X016706Y012513D02*
X015900Y012513D01*
X015153Y010740D02*
X015040Y010740D01*
X015737Y010247D02*
X017387Y010247D01*
X017406Y010149D02*
X015808Y010149D01*
X015848Y010050D02*
X017423Y010050D01*
X017429Y009952D02*
X015840Y009952D01*
X015839Y009853D02*
X017436Y009853D01*
X017442Y009755D02*
X015839Y009755D01*
X015839Y009656D02*
X017449Y009656D01*
X017455Y009558D02*
X015838Y009558D01*
X015838Y009459D02*
X017462Y009459D01*
X017468Y009361D02*
X015838Y009361D01*
X015837Y009262D02*
X017475Y009262D01*
X017481Y009164D02*
X017157Y009164D01*
X017234Y009065D02*
X017487Y009065D01*
X017494Y008967D02*
X017270Y008967D01*
X017270Y008868D02*
X017490Y008868D01*
X017483Y008770D02*
X017237Y008770D01*
X016716Y008671D02*
X016248Y008671D01*
X016233Y009164D02*
X016723Y009164D01*
X013560Y004337D02*
X013322Y004337D01*
X013212Y004239D02*
X013484Y004239D01*
X013450Y004140D02*
X013101Y004140D01*
X012991Y004042D02*
X013430Y004042D01*
X013329Y003943D02*
X012880Y003943D01*
X012783Y003856D02*
X012783Y003856D01*
X012765Y003845D02*
X013228Y003845D01*
X013128Y003746D02*
X012613Y003746D01*
X012461Y003648D02*
X013027Y003648D01*
X012926Y003549D02*
X012568Y003549D01*
X012633Y003451D02*
X012825Y003451D01*
X012697Y003352D02*
X012660Y003352D01*
X011080Y000791D02*
X009220Y000791D01*
X009194Y000693D02*
X011113Y000693D01*
X010854Y000594D02*
X009131Y000594D01*
X008969Y000496D02*
X010359Y000496D01*
X010192Y000890D02*
X009247Y000890D01*
X009341Y000988D02*
X010078Y000988D01*
X010016Y001087D02*
X009435Y001087D01*
X009541Y000397D02*
X008259Y000397D01*
X008649Y000594D02*
X006946Y000594D01*
X006617Y000693D02*
X008586Y000693D01*
X008560Y000791D02*
X006650Y000791D01*
X006684Y000890D02*
X008562Y000890D01*
X008602Y000988D02*
X006718Y000988D01*
X006752Y001087D02*
X008690Y001087D01*
X008688Y001185D02*
X006785Y001185D01*
X006819Y001284D02*
X008602Y001284D01*
X008561Y001382D02*
X006859Y001382D01*
X006883Y001481D02*
X008560Y001481D01*
X008586Y001579D02*
X006894Y001579D01*
X006902Y001678D02*
X008651Y001678D01*
X008722Y001776D02*
X006895Y001776D01*
X006874Y001875D02*
X007629Y001875D01*
X007444Y001973D02*
X006851Y001973D01*
X006810Y002072D02*
X007224Y002072D01*
X007003Y002170D02*
X006753Y002170D01*
X006782Y002269D02*
X006689Y002269D01*
X007441Y000496D02*
X008811Y000496D01*
M02*
