%
M48
M72
T01C0.0200
T02C0.0400
T03C0.0866
%
T01
X3140Y3210
X4090Y4030
X8850Y2080
X8890Y1450
X8890Y820
X12330Y3320
X13780Y4090
X14610Y3190
X16020Y8910
X16940Y8914
X15340Y10460
X15642Y12721
X14620Y14570
X13670Y13630
X8880Y16550
X7390Y15460
X6700Y16370
X3140Y14760
X770Y8990
X2030Y8910
T02
X2380Y13280
X4570Y2440
X10440Y1290
X13230Y15460
T03
X11850Y16250
X1600Y11900
X5900Y1650
X11850Y1650
M30
