G75*
%MOIN*%
%OFA0B0*%
%FSLAX24Y24*%
%IPPOS*%
%LPD*%
%AMOC8*
5,1,8,0,0,1.08239X$1,22.5*
%
%ADD10R,0.0867X0.0513*%
%ADD11R,0.0789X0.0513*%
%ADD12R,0.0513X0.0867*%
%ADD13R,0.0513X0.0789*%
%ADD14R,0.0356X0.0434*%
%ADD15C,0.0720*%
%ADD16C,0.1346*%
%ADD17C,0.0120*%
D10*
G36*
X003558Y004221D02*
X002946Y004833D01*
X003308Y005195D01*
X003920Y004583D01*
X003558Y004221D01*
G37*
X008034Y002080D03*
G36*
X013629Y003608D02*
X013017Y002996D01*
X012655Y003358D01*
X013267Y003970D01*
X013629Y003608D01*
G37*
G36*
X014242Y013679D02*
X014854Y013067D01*
X014492Y012705D01*
X013880Y013317D01*
X014242Y013679D01*
G37*
X009766Y015820D03*
G36*
X004171Y014292D02*
X004783Y014904D01*
X005145Y014542D01*
X004533Y013930D01*
X004171Y014292D01*
G37*
D11*
G36*
X003864Y002133D02*
X003308Y002689D01*
X003670Y003051D01*
X004226Y002495D01*
X003864Y002133D01*
G37*
G36*
X004755Y003024D02*
X004199Y003580D01*
X004561Y003942D01*
X005117Y003386D01*
X004755Y003024D01*
G37*
G36*
X002639Y003358D02*
X002083Y003914D01*
X002445Y004276D01*
X003001Y003720D01*
X002639Y003358D01*
G37*
X008034Y000820D03*
X009766Y000820D03*
X009766Y002080D03*
G36*
X014492Y002689D02*
X013936Y002133D01*
X013574Y002495D01*
X014130Y003051D01*
X014492Y002689D01*
G37*
G36*
X015717Y003914D02*
X015161Y003358D01*
X014799Y003720D01*
X015355Y004276D01*
X015717Y003914D01*
G37*
G36*
X014826Y004805D02*
X014270Y004249D01*
X013908Y004611D01*
X014464Y005167D01*
X014826Y004805D01*
G37*
G36*
X015161Y014542D02*
X015717Y013986D01*
X015355Y013624D01*
X014799Y014180D01*
X015161Y014542D01*
G37*
G36*
X013936Y015767D02*
X014492Y015211D01*
X014130Y014849D01*
X013574Y015405D01*
X013936Y015767D01*
G37*
G36*
X013045Y014876D02*
X013601Y014320D01*
X013239Y013958D01*
X012683Y014514D01*
X013045Y014876D01*
G37*
X009766Y017080D03*
X008034Y017080D03*
X008034Y015820D03*
G36*
X003308Y015211D02*
X003864Y015767D01*
X004226Y015405D01*
X003670Y014849D01*
X003308Y015211D01*
G37*
G36*
X002083Y013986D02*
X002639Y014542D01*
X003001Y014180D01*
X002445Y013624D01*
X002083Y013986D01*
G37*
G36*
X002974Y013095D02*
X003530Y013651D01*
X003892Y013289D01*
X003336Y012733D01*
X002974Y013095D01*
G37*
D12*
X002030Y009816D03*
X015770Y008084D03*
D13*
X017030Y008084D03*
X017030Y009816D03*
X015770Y009816D03*
X002030Y008084D03*
X000770Y008084D03*
X000770Y009816D03*
D14*
G36*
X001169Y010707D02*
X001517Y010638D01*
X001433Y010213D01*
X001085Y010282D01*
X001169Y010707D01*
G37*
G36*
X000667Y010807D02*
X001015Y010738D01*
X000931Y010313D01*
X000583Y010382D01*
X000667Y010807D01*
G37*
G36*
X004683Y015655D02*
X004881Y015360D01*
X004521Y015119D01*
X004323Y015414D01*
X004683Y015655D01*
G37*
G36*
X004399Y016081D02*
X004597Y015786D01*
X004237Y015545D01*
X004039Y015840D01*
X004399Y016081D01*
G37*
G36*
X007113Y016834D02*
X007043Y017183D01*
X007467Y017268D01*
X007537Y016919D01*
X007113Y016834D01*
G37*
G36*
X007213Y016332D02*
X007143Y016681D01*
X007567Y016766D01*
X007637Y016417D01*
X007213Y016332D01*
G37*
G36*
X010657Y016681D02*
X010588Y016333D01*
X010163Y016417D01*
X010232Y016765D01*
X010657Y016681D01*
G37*
G36*
X010757Y017183D02*
X010688Y016835D01*
X010263Y016919D01*
X010332Y017267D01*
X010757Y017183D01*
G37*
G36*
X015605Y013167D02*
X015310Y012969D01*
X015069Y013329D01*
X015364Y013527D01*
X015605Y013167D01*
G37*
G36*
X016031Y013451D02*
X015736Y013253D01*
X015495Y013613D01*
X015790Y013811D01*
X016031Y013451D01*
G37*
G36*
X016631Y007193D02*
X016283Y007262D01*
X016367Y007687D01*
X016715Y007618D01*
X016631Y007193D01*
G37*
G36*
X017133Y007093D02*
X016785Y007162D01*
X016869Y007587D01*
X017217Y007518D01*
X017133Y007093D01*
G37*
G36*
X013117Y002245D02*
X012919Y002540D01*
X013279Y002781D01*
X013477Y002486D01*
X013117Y002245D01*
G37*
G36*
X013401Y001819D02*
X013203Y002114D01*
X013563Y002355D01*
X013761Y002060D01*
X013401Y001819D01*
G37*
G36*
X007143Y001219D02*
X007212Y001567D01*
X007637Y001483D01*
X007568Y001135D01*
X007143Y001219D01*
G37*
G36*
X007043Y000717D02*
X007112Y001065D01*
X007537Y000981D01*
X007468Y000633D01*
X007043Y000717D01*
G37*
G36*
X002195Y004733D02*
X002490Y004931D01*
X002731Y004571D01*
X002436Y004373D01*
X002195Y004733D01*
G37*
G36*
X001769Y004449D02*
X002064Y004647D01*
X002305Y004287D01*
X002010Y004089D01*
X001769Y004449D01*
G37*
D15*
X004570Y002440D03*
X010440Y001290D03*
X002380Y013280D03*
X013230Y015460D03*
D16*
X011850Y016250D03*
X001600Y011900D03*
X005900Y001650D03*
X011850Y001650D03*
D17*
X011293Y002215D02*
X012422Y002215D01*
X012462Y002173D02*
X012373Y002264D01*
X012272Y002339D01*
X012159Y002397D01*
X012039Y002435D01*
X011914Y002454D01*
X011788Y002453D01*
X011663Y002431D01*
X011544Y002389D01*
X011434Y002330D01*
X011334Y002256D01*
X011246Y002166D01*
X011174Y002065D01*
X011117Y001954D01*
X011078Y001835D01*
X011058Y001712D01*
X011057Y001587D01*
X011074Y001463D01*
X011111Y001344D01*
X011371Y000586D01*
X012941Y001236D01*
X012589Y001956D01*
X012534Y002070D01*
X012462Y002173D01*
X012516Y002096D02*
X011196Y002096D01*
X011129Y001978D02*
X012579Y001978D01*
X012637Y001859D02*
X011086Y001859D01*
X011063Y001741D02*
X012695Y001741D01*
X012753Y001622D02*
X011057Y001622D01*
X011069Y001504D02*
X012811Y001504D01*
X012869Y001385D02*
X011098Y001385D01*
X011137Y001267D02*
X012927Y001267D01*
X012729Y001148D02*
X011178Y001148D01*
X011219Y001030D02*
X012442Y001030D01*
X012156Y000911D02*
X011259Y000911D01*
X011300Y000793D02*
X011870Y000793D01*
X011584Y000674D02*
X011341Y000674D01*
X011439Y002333D02*
X012280Y002333D01*
X011932Y002452D02*
X011781Y002452D01*
X006704Y001714D02*
X006703Y001588D01*
X006681Y001463D01*
X006639Y001344D01*
X006379Y000586D01*
X004809Y001236D01*
X005161Y001956D01*
X005220Y002066D01*
X005294Y002166D01*
X005384Y002254D01*
X005485Y002326D01*
X005596Y002383D01*
X005715Y002422D01*
X005838Y002442D01*
X005963Y002443D01*
X006087Y002426D01*
X006206Y002389D01*
X006320Y002334D01*
X006423Y002262D01*
X006514Y002173D01*
X006589Y002072D01*
X006647Y001959D01*
X006685Y001839D01*
X006704Y001714D01*
X006700Y001741D02*
X005055Y001741D01*
X005113Y001859D02*
X006679Y001859D01*
X006637Y001978D02*
X005172Y001978D01*
X005242Y002096D02*
X006571Y002096D01*
X006472Y002215D02*
X005344Y002215D01*
X005498Y002333D02*
X006322Y002333D01*
X006703Y001622D02*
X004997Y001622D01*
X004939Y001504D02*
X006688Y001504D01*
X006653Y001385D02*
X004881Y001385D01*
X004823Y001267D02*
X006613Y001267D01*
X006572Y001148D02*
X005021Y001148D01*
X005308Y001030D02*
X006531Y001030D01*
X006491Y000911D02*
X005594Y000911D01*
X005880Y000793D02*
X006450Y000793D01*
X006409Y000674D02*
X006166Y000674D01*
X001909Y011153D02*
X002022Y011211D01*
X002123Y011286D01*
X002212Y011377D01*
X002284Y011480D01*
X002339Y011594D01*
X002376Y011713D01*
X002393Y011837D01*
X002392Y011962D01*
X002372Y012085D01*
X002333Y012204D01*
X002276Y012315D01*
X002204Y012416D01*
X002116Y012506D01*
X002016Y012580D01*
X001906Y012639D01*
X001186Y012991D01*
X000536Y011421D01*
X001294Y011161D01*
X001413Y011119D01*
X001538Y011097D01*
X001664Y011096D01*
X001789Y011115D01*
X001909Y011153D01*
X002035Y011221D02*
X001120Y011221D01*
X000774Y011339D02*
X002175Y011339D01*
X002268Y011458D02*
X000551Y011458D01*
X000600Y011576D02*
X002331Y011576D01*
X002370Y011695D02*
X000649Y011695D01*
X000698Y011813D02*
X002390Y011813D01*
X002392Y011932D02*
X000747Y011932D01*
X000796Y012050D02*
X002378Y012050D01*
X002344Y012169D02*
X000845Y012169D01*
X000894Y012287D02*
X002291Y012287D01*
X002212Y012406D02*
X000943Y012406D01*
X000993Y012524D02*
X002092Y012524D01*
X001899Y012643D02*
X001042Y012643D01*
X001091Y012761D02*
X001657Y012761D01*
X001415Y012880D02*
X001140Y012880D01*
X001511Y011102D02*
X001705Y011102D01*
X011103Y015941D02*
X011161Y015828D01*
X011236Y015727D01*
X011327Y015638D01*
X011430Y015566D01*
X011544Y015511D01*
X011663Y015474D01*
X011787Y015457D01*
X011912Y015458D01*
X012035Y015478D01*
X012154Y015517D01*
X012265Y015574D01*
X012366Y015646D01*
X012456Y015734D01*
X012530Y015834D01*
X012589Y015944D01*
X012941Y016664D01*
X011371Y017314D01*
X011111Y016556D01*
X011069Y016437D01*
X011047Y016312D01*
X011046Y016186D01*
X011065Y016061D01*
X011103Y015941D01*
X011097Y015961D02*
X012597Y015961D01*
X012655Y016079D02*
X011062Y016079D01*
X011046Y016198D02*
X012713Y016198D01*
X012771Y016316D02*
X011048Y016316D01*
X011069Y016435D02*
X012829Y016435D01*
X012887Y016553D02*
X011110Y016553D01*
X011150Y016672D02*
X012923Y016672D01*
X012637Y016790D02*
X011191Y016790D01*
X011232Y016909D02*
X012351Y016909D01*
X012065Y017027D02*
X011272Y017027D01*
X011313Y017146D02*
X011778Y017146D01*
X011492Y017264D02*
X011354Y017264D01*
X011154Y015842D02*
X012535Y015842D01*
X012445Y015724D02*
X011239Y015724D01*
X011374Y015605D02*
X012309Y015605D01*
X012060Y015487D02*
X011624Y015487D01*
M02*
